<svg xmlns="http://www.w3.org/2000/svg" xmlns:xlink="http://www.w3.org/1999/xlink"><defs><clipPath id="a"><path fill="#fff" transform="translate(12 12)" d="M0 0h24v24H0z"/></clipPath></defs><symbol id="htmlacademy" viewBox="0 0 60 60"><path fill="#2E368F" d="M30.2 5H30L10.3 7.1v36.2L30 55l19.7-11.7V7.1L30.2 5zm17 36.8L30 52 12.8 41.8V27l17.1 10.2V39l-11.7-7v1.8L30 40.9v1.9l-11.8-7v1.8l11.8 7 11.9-7.1v-7.6l5.3-3.2v15.1zm-.1-17-4.7 2.8-2.2 1.3-10.3-6.1v1.8l8.8 5.3h-.1l-.2.1-1.3.7-7.3-4.3v1.8l5.8 3.4-1.4.9-4.3-2.6v1.8l2.9 1.7-2.9 1.7-17-10.1 17-10.2 17.2 10zm.1-1.8L29.9 12.8 12.8 23V9.4L30 7.6l17.2 1.8V23z"/></symbol><symbol id="like-icon.svg"><path d="m12.964 3.78-.628 3.045-.627 2.625h9.096v2.205L17.773 18.9h-9.41V8.4l4.6-4.62ZM2.09 10.5v8.4-8.4ZM13.8 0 6.9 6.93c-.418.315-.627.84-.627 1.47v10.5c0 1.155.94 2.1 2.09 2.1h9.41c.836 0 1.568-.525 1.881-1.26l3.137-7.455c.104-.21.104-.525.104-.735v-2.1H23c0-1.155-.94-2.1-2.09-2.1h-6.587l1.045-4.83v-.315c0-.42-.209-.84-.418-1.155L13.8 0ZM4.182 8.4H0V21h4.182V8.4Z"/></symbol><symbol id="play"><path fill="#fff" fill-opacity=".7" d="M48 27 0 54V0l48 27Z"/></symbol><symbol id="icon-cross"><path d="M22.2 2.8 19.4 0l-8.3 8.3L2.8 0 0 2.8l8.3 8.3L0 19.4l2.8 2.8 8.3-8.3 8.3 8.3 2.8-2.8-8.3-8.3 8.3-8.3Z" fill="#fff"/></symbol><symbol id="icon-htmlacademy"><path d="M13.6 0h-.1L0 1.4v24.7l13.5 8 13.4-8V1.4L13.6 0ZM25 12.1 13.5 5.3v-.1h-.1l-.1-.1v.1L1.9 12.1v-9l11.5-1.2L25 3.1v9ZM13.4 6.8l11.5 6.7-4.5 2.6-7.1-4.2v1.4l5.9 3.5-.9.5-5-3v1.4l3.8 2.3-.8.5-3-1.8v1.4l1.9 1.1-1.8 1.1L2 13.6l11.4-6.8ZM1.9 15.1l11.4 6.8v1l-7.9-4.7v1.4l8 4.8v1.1l-8-4.7v1.4l8 4.8 8.1-4.9v-5.2l3.4-2v10l-11.5 6.9L1.9 25v-9.9Z" fill="#000"/></symbol><symbol id="icon-menu"><path d="M22.9 0H0v4h22.9V0ZM22.9 9H0v4h22.9V9ZM22.9 18H0v4h22.9v-4Z" fill="#81B3D2"/></symbol><symbol id="icon-telegram"><path fill="#81B3D2" d="M0 0h48v48H0z"/><path d="m34.44 16.622-3.17 14.944c-.239 1.055-.862 1.317-1.748.82l-4.828-3.558-2.33 2.242c-.258.258-.473.473-.97.473l.347-4.917 8.948-8.086c.39-.346-.084-.54-.604-.192l-11.063 6.966-4.762-1.491c-1.036-.323-1.055-1.036.216-1.533l18.627-7.177c.863-.323 1.617.192 1.336 1.51Z" fill="#fff"/></symbol><symbol id="icon-vk"><path fill="#81B3D2" d="M0 0h48v48H0z"/><g clip-path="url(#a)"><path fill-rule="evenodd" clip-rule="evenodd" d="M35.45 17.948c.166-.546 0-.948-.795-.948H32.03c-.668 0-.976.347-1.143.73 0 0-1.335 3.196-3.226 5.272-.612.602-.89.793-1.224.793-.167 0-.418-.191-.418-.738v-5.109c0-.656-.184-.948-.74-.948h-4.128c-.417 0-.668.304-.668.593 0 .621.946.765 1.043 2.513v3.798c0 .833-.153.984-.487.984-.89 0-3.055-3.211-4.34-6.885-.249-.715-.501-1.003-1.172-1.003H12.9c-.75 0-.9.347-.9.73 0 .682.89 4.07 4.145 8.551C18.315 29.341 21.37 31 24.153 31c1.669 0 1.875-.368 1.875-1.003v-2.313c0-.737.158-.884.687-.884.39 0 1.057.192 2.615 1.667C31.11 30.216 31.403 31 32.405 31h2.625c.75 0 1.126-.368.91-1.096-.238-.724-1.088-1.775-2.215-3.022-.612-.71-1.53-1.475-1.809-1.858-.389-.491-.278-.71 0-1.147 0 0 3.2-4.426 3.533-5.929h.001Z" fill="#fff"/></g></symbol><symbol id="icon-youtube"><path fill="#81B3D2" d="M0 0h48v48H0z"/><path d="M31.181 17H16.813C15.306 17 14 18.3 14 19.8v8.3c0 1.6 1.306 2.9 2.813 2.9h14.368c1.608 0 2.814-1.3 2.814-2.8v-8.4c.1-1.5-1.206-2.8-2.814-2.8ZM21.033 27.4v-6.8l6.833 3.4-6.833 3.4Z" fill="#fff"/></symbol><symbol id="intro-triangle"><path fill="#fff" d="M249.6 23.7 0 0v57h600L249.6 0v23.7Zm700.8 0V0L600 57h599.9V0L950.4 23.7Z"/></symbol><symbol id="logo"><path fill="#81B3D3" d="M185 0H0l79.81 90.1c7.04 7.87 18.44 7.87 25.48 0L185 0Z"/><path fill="#23A9E1" d="M42.83.7 92 58.84 140.88 1.1 42.83.7Z"/><path fill="#fff" d="M120.95 17.22c-5.05 0-10 .1-15.07.1 5.95-6.87 8.63-6.17 15.07-.1ZM80.1 22.6h26.48c-1.98-1.2-6.64-7.07-9.22-4.88-.2.2-7.44-8.86-12.2-4.48-4.16 3.78-6.04-.5-10.8 2.49-5.26 3.58 3.17 5.68 5.75 6.87Z"/><path fill="#491213" d="M92.3 0H41.84v22.4L92 83.63l.3-.4 50.27-60.13V0H92.3ZM54.43 1.8h5.45v17.12l-5.45-6.48V1.8Zm-.8 9.75-4.95-5.88V1.8h4.96v9.76Zm19.14-2.69L67.12 1.8h5.65v7.07Zm-6.54 3.78L60.68 1.8h5.55v10.85ZM60.58 3.4l5.45 10.65a39.17 39.17 0 0 0-5.45 4.88V3.39Zm6.44-.5 5.55 6.87a41.79 41.79 0 0 0-5.55 3.68V2.89Zm6.54-.2 4.76 4.18c-1.68.7-3.27 1.5-4.76 2.29V2.69Zm5.56 3.88L73.76 1.8h5.95v4.58c-.3 0-.4.1-.6.2ZM98.05 1.8h4.96l-4.96 2.4V1.8Zm-5.75 0h4.36L92.3 3.9V1.8Zm-.9 2-4.15-2h4.16v2Zm-5.44.5L80.9 1.8h5.06v2.5ZM80.4 2.4l4.66 2.29c-1.58.4-3.17.8-4.66 1.3v-3.6Zm6.35 0L90.12 4c-1.19.1-2.28.2-3.47.4v-2h.1Zm10.31.1v1.9c-1.09-.2-2.18-.3-3.37-.4l3.37-1.5Zm6.44-.1v3.68c-1.48-.5-3.07-1-4.75-1.4l4.75-2.28Zm.7-.6h5.85l-5.36 4.78c-.2-.1-.3-.1-.5-.2V1.8Zm13.48 0h5.55l-5.55 10.85V1.8Zm-6.54 0h5.65l-5.65 6.97V1.8Zm-.8.9v6.47c-1.48-.8-3.07-1.6-4.75-2.29l4.76-4.18Zm6.55.2v10.45c-.7-.5-1.49-1-2.28-1.6-1-.69-2.18-1.39-3.37-2.08l5.65-6.77Zm6.34.5v15.13c-1.09-1-2.87-2.69-5.45-4.58l5.45-10.55Zm.8 15.92V1.8h5.45v11.35l-5.45 6.17c.1.1 0 .1 0 0Zm6.24-17.52h4.96v4.68l-4.96 5.78V1.79Zm-82.29 0v2.89L45.51 1.8h2.48Zm12.7 18.12.1.1s3.56-3.88 9.12-7.57C75.15 8.96 83.08 4.88 92 4.98c8.83 0 16.96 4.18 22.11 7.66 5.56 3.69 9.22 7.47 9.32 7.57l-3.86 4.48c-6.84.9-11.8 6.07-18.44 4.98-3.38-.6-3.47-2.49-4.47-4.48-.69-1.5-1.88-1.3-3.47-1.9-1.38-.59-2.28-1.69-5.15-1.09-2.48.6-2.78 4.48-5.95 4.28-1.69-.1-1.78-2.49-4.16-5.47-6.25-7.57-12.1-6.47-16.07.5l30.05 35.74L60.68 19.9Zm75.24-14.43v-3.7h3.18l-3.18 3.69Z"/><path fill="#23A9E1" d="M87.94 70.59 92 64.12l3.97 6.47L92 77.06l-4.06-6.47Z"/><path fill="#fff" d="M64.94 32.16c.5.6.9 1.3.8 2.09-.1.6-.9 1.6-.3 1.79.69-.9 1.48-1.9 2.18-2.79-.6-.2-5.36-5.77-5.36-6.47-1.09.6-2.08 1.2-3.17 1.7.2.7 1.29 0 1.88 0 .8.1 1.4.6 1.99 1.19-1.69 1.4-5.85 4.98-6.35 5.08-.2 0-1.09-.6-1.09-.1 0 .3.9 1 1 1.2.69.89 1.48 1.78 2.17 2.68.6-.3-.1-.7.2-1.2.3-.4 4.86-4.28 6.05-5.17Zm-5.26-6.97c.4-.1.6.4 1-.1-.8-1-1.6-1.9-2.38-2.89-.4-.4-.8-.9-.7 0 .1.6-6.05 5.68-6.44 5.78-.5.2-.8-.4-1.1.1.7.9 1.5 1.69 2.19 2.58.2.3.5.6.7.9.29.3.19-.7.19-.6-.1-.5.5-.9.9-1.2 1.48-1.29 5.25-4.57 5.64-4.57Zm-8.72-.89c-1.79.49-3.67-.2-4.16-2-.5-1.8.59-3.78 2.08-4.78 1.39-1 3.57-1 4.36.8.3.8.2 1.7-.1 2.49-.2.5-.6 1 .1 1.3.9-1.1 1.68-2.2 2.58-3.3-1.1-.6-1.49-1.69-2.28-2.58-.9-1.1-2.09-2.1-3.47-2.3-2.88-.39-5.55 2.6-5.75 5.19a6.3 6.3 0 0 0 1.19 3.98c.79 1 1.88 1.6 2.38 2.79.3.1 2.67-1 3.27-1.3-.1-.1-.1-.2-.2-.3-.7.2 0 0 0 0Zm38.96 36.23c-1.19-.8-3.96-4.68-4.56-5.27-.1-.1-.2-.3-.3-.4 0 0-.3.2-.2.2-.2.1.1.6-.1.9-.79 1.19-5.74 4.97-5.94 5.17-.6.4-1.2-.2-1.49.3.7.9 2.78 3.48 2.98 3.58.5.1.1-.8.2-1 .1-.4 2.57-2.38 3.46-3.18.3-.3.7.4.9.7.3.5.5 1 .3 1.6-.1.39-.7.89-.3 1.19.6-.7 2.38-2.8 2.57-3 .3-.29-.6 0-.5-.1-.39.2-.69.2-1.08 0-.1-.1-1.1-1.09-1-1.19.4-.4 1-1 1.5-1.1.89-.19 1.58 1.5 1.68 2.1.1.6.1 1.2-.1 1.8-.1.39-.5.69 0 .89.7-1 1.39-1.9 2.08-2.89.2-.2 0-.3-.1-.3-.1-.1.2 0 0 0Zm-10.11-4.18a5.32 5.32 0 0 0 .8-7.27c-1.9-2.49-5.36-3.08-7.74-1.1a5.31 5.31 0 0 0-.8 7.28c1.99 2.68 5.16 2.98 7.74 1.09 1.19-.9-.1.1 0 0Zm-.5-4.68a7.36 7.36 0 0 1-3.66 3.68c-1.79.7-3.08-.8-2.38-2.58a7.77 7.77 0 0 1 3.66-3.69c1.89-.7 3.08.9 2.38 2.6-.4.89.1-.2 0 0Zm-5.85-9.86c.5.1.9.5 1.3 0-.7-.9-1.5-1.79-2.19-2.58-.6.3 0 .5-.2 1-.2.39-2.57.79-3.17.89.2-.6.9-2.6 1.2-2.79.49-.4.88.4 1.28-.1L69 34.95c-.3-.4-.6-1-.99-.7 0 0 0 1.5-.1 1.7-.1.19-.89 3.57-1.88 4.47-.5.4-2.18 1.9-2.68 2.1-.5.2-.8-.6-1.19 0 .8.99 1.69 1.98 2.48 2.98.1.1.6.9.8.9.49.1.1-.9.1-1.1.2-.4 2.47-2.69 3.46-2.89 1.2-.2 2.98-.7 4.46-.6.3.1-.4 0 0 0Z"/><path fill="#DC6243" d="M67.22 22.8c-3.97-.2-2.38-3.98.4-4.78 2.57-.8 8.03 1.7 9.71 3.39-2.77.9-6.34.7-9.32.9-.2-3.2-.99-2.1-.8.49Zm9.42 12.44c-8.53-.1-2.78-13.24.1-12.44 3.37 1.1 2.97 12.54-.1 12.44Zm6.04-4.28c-.79 2.5-2.37 2.99-2.18-.1.2-3.48 2.48-2.68 4.86-3.98 1.98-1.1 3.08-5.18 6.55-2.79 1.58 1.1 3.37.2 3.86 1.8 0-.1-4.46 10.25-1.98 10.25-4.96 0-2.78-5.87-.9-9.86-1.78.9-4.75 6.67-2.37 7.57-1.3 1.7-5.16 3.88-7.14 2.29-1.49-1.1-.7-3.19-.7-5.18Zm4.07 9.56c-3.47 1-8.03-1.2-2.48-2.29 3.47-.7 7.14.7 2.48 2.3.1 0-.1 0 0 0Zm4.36-.1c-.7-1.7.6-3.58 2.68-2.19 1.78 1.2-.9 3.09-2.68 2.2ZM88.14 45c-2.38-.7-10.41-.6-5.16-2.79 1.69-.6 10.11.2 5.16 2.8Zm10.41 3.29c-1.39-1.2-2.88-1.3-4.17 0-1.78-3.29-8.23-2.2-11.3-2.7 1.59 4.09 14.67 4.89 15.47 2.7Zm-1.89 2.49c-3.17-.1-6.64-.6-9.51.1 1.88.5 6.34 1.79 2.18 2.88 1.48 2.2 3.96 2 5.55.1-.7-.3-1-.7-1.59-1.1 1.59-.3 3.18-1.19 3.37-1.98Zm3.57-3.88c-5.25-3.1-3.96-5.38.4-7.57 2.28-1.1 7.24-5.18 9.32-3.89-3.27 3.89-6.54 7.67-9.72 11.45Z"/><path fill="#F49774" d="M96.47 39.62c-4.47-4.58 6.64-4.18 8.42-5.77 1.3.4 10.71-8.26 12.99-7.67-1.69 1.9-5.16 8.07-7.73 8.07-1.98 0-3.97-.3-5.46 1.1-2.18 2.08-5.84 3.08-8.22 4.27Z"/><path fill="#F4B1A4" d="M97.95 34.05c-2.48 1.3-4.76-3.88-.5-3.39 2.78.3 5.66-.2 8.24.2-1.99 2.3-4.66 3.59-7.74 3.19Z"/><path fill="#fff" d="M110.44 52.27c.2.6.3 1.3.2 1.99-.1.9-.99 2.89-2.18 2.29-1.19-.6-2.18-1.7-3.17-2.59.8-.9 1.49-1.7 2.88-1.3.4.1.69 0 .3-.3-.4-.2-3.08-1.98-3.28-1.78-.3.3.5.9.2 1.49-.2.4-.6.8-.9 1.2-.69-.6-1.88-1.3-1.08-2.3.5-.7 1.28-1.19 2.08-1.29.6-.1 1.78.4 1.98-.2-1.09-.5-2.18-1-3.27-1.6.2.8-3.27 4.49-4.07 5.48-.1.1-.69.6-.69.8 0 .4.6.1.7.1.49-.2 6.74 5.08 6.93 5.48.1.3-.2.6 0 .7 0 0 .2.2.3.2.4-.5 4.46-5.98 5.35-6.18-.79-1.2-1.58-2.4-2.37-3.68-.6.3 0 1 .1 1.49Zm-6.14 6.67c-2.08-1.3-5.55 1.3-6.05 1.5-1 .49-1.78-.5-1.29-1.5a3 3 0 0 1 2.28-1.3c.3 0 1.3.2 1.49 0 .1-.2.2-.2 0-.3-.9-.6-1.69-1.19-2.58-1.69-.2 1.1-1.39 1.7-2.08 2.4-.8.89-1.49 1.88-1.49 3.18 0 1.1.7 2.09 1.69 2.69 1.09.6 2.28.1 3.27-.5.6-.4 1.29-.9 1.88-1.2 1-.5 2.28-.1 1.99 1.3a3.44 3.44 0 0 1-2.38 2.29c-.6.2-1.3.1-1.89-.1-.4-.1-.99-.7-1.19-.1 1.2.8 2.28 1.7 3.47 2.49.1-.8.5-1.1 1.1-1.6.69-.6 1.38-1.29 1.98-2.09 1.19-1.69 1.58-4.08-.2-5.47Zm0 0c.99.6-.6-.5 0 0Zm36.38-39.43c-.7.7-8.33-2.29-8.92-2.78-.3-.1-.3-1.3-.7-.8l-1.18 1.5c-.4.5-.8.99-1.3 1.49-.29.3-.49.5 0 .7.8-.4 5.36 7.26 4.96 8.46-.69.4-6.84-5.08-7.03-5.38-.1-.1.3-1-.2-.9-.2 0-.7.9-.9 1.1-.3.4-.59.7-.89 1.1.3.5.5 0 1 0 .4.1 1.78 1.29 2.18 1.69-.7 0-2.68.1-2.88.1-.9.1-.4-.7-1-.9-.78.9-1.48 1.8-2.27 2.79l-1.29 1.59c-.1.1 0 0 0 .1.3.3.1.2.6 0 .49-.2 6.54 4.88 6.74 5.18.4.4-.2 1 .4 1.2.59-.7 1.18-1.5 1.78-2.2.1-.1.1-.1 0-.2-.4-.4-.5.2-1 .2-.49-.1-4.36-3.38-5.84-4.58 1.78-.1 7.23-.3 8.13-.3.3 0 1.09.9 1.09 1.2-.1.4-.5.6.1.8.5-.6.99-1.1 1.48-1.7l.2-.3c.1-.1.1-.1.2-.3l.2-.2c.4-.5 1.78-1.99 1.58-2.09-.5-.4-.69.5-1.28-.1-.3-.2-1.2-1.79-1.4-2.19-.29-.4.6-.9 1-1.09.8-.5 3.17-1.2 3.47.3 0 .3-.3.5-.1.7 0 0 .2.2.3.2.2-.2 2.38-2.8 3.27-3.99-.3-.2-.4-.3-.5-.4Zm-7.33 2.2c.1 0 .2-.1 0 0-.3.2-.7.5-1 .79-.49-.9-.99-1.8-1.58-2.69 1.19.5 2.38 1 3.47 1.5-.2.1-.5.2-.9.4Zm-9.62 11.14c-2.38-1.99-5.55-1.39-7.54.8a5.38 5.38 0 0 0 .6 7.57c2.28 1.89 5.65 1.4 7.53-.8 1.89-2.29 1.79-5.67-.59-7.57Zm-.3 6.58s0 .1 0 0c-1.29 1.29-3.37.1-4.46-.7-1.09-.8-3.07-2.59-1.88-4.08 1.09-1.3 3.07-.2 4.16.5 1.2.8 3.37 2.58 2.28 4.18l-.1.1Z"/><path fill="#fff" d="M123.73 32.85c1.19 1-.3-.2 0 0Zm-.3 6.68c0-.1 0-.1 0 0l.1-.1c-.1 0-.1.1-.1.1Zm-6.24 2.38c.1.1.3.3 0 0-2.88-2.19-6.25-1.59-8.43 1.1l-2.98 3.58c.4.5.8-.1 1.3.2.4.3 6.14 5.08 6.24 5.38.2.5-.3.5.1.9.2.1 4.46-5.18 4.86-6.18.89-1.79.3-3.68-1.1-4.98Zm-1.3 6.77c-.2.3 0 .1-.69.7-.3.3-6.34-4.68-6.14-4.88.79-.9 2.58-1.59 3.57-1.3 2.18.5 5.15 3.2 3.27 5.48Z"/></symbol><symbol id="sedona-tablet"><path d="M54.5 53c0 .5-.1.9-.1 1.3-.5 4-1.8 7.9-3.9 11.5-2.1 3.6-5 6.4-8.5 8.4-1.3.6-2.7 1.1-4.1 1.6-1.4.4-2.8.8-4.2 1.1-1.2.2-2.3.4-3.5.5-1.2.1-2.3.2-3.4.2h-1.2c-4.6-.2-9.2-1.2-13.7-3.1-4.4-2-8.4-4.5-11.9-7.7l9.3-14.9.2.2.2.2c2.1 2.3 4.5 4.5 7.1 6.4 2.6 1.9 5.7 3 9.1 3.2.1 0 .2 0 .3.1.1 0 .2.1.3.1.1 0 .2 0 .3.1.1 0 .2.1.3.1.3 0 .6 0 1-.1.3 0 .7-.1 1-.2 1.2-.2 2.4-.7 3.5-1.4s2-1.5 2.6-2.6c.1-.2.2-.3.2-.5.1-.2.2-.3.2-.5.2-.5.3-1 .3-1.5.1-.5.1-.9.1-1.3 0-2.1-.9-3.9-2.7-5.3-1.8-1.4-3.8-2.5-5.9-3.3-.9-.3-1.7-.6-2.4-.8-.8-.2-1.5-.4-2.2-.5-.1 0-.2 0-.2-.1-.1 0-.2-.1-.2-.1-3.8-.9-7.4-2.4-10.7-4.5-3.3-2.1-5.6-5-6.9-8.9l-.6-2.4c-.2-.9-.3-1.7-.4-2.7-.1-.3-.1-.6-.1-.9v-.9c0-.6 0-1.2.1-1.9 0-.6.1-1.2.3-1.9.2-1.5.6-3.1 1.2-4.6.5-1.5 1.2-2.9 2.1-4.2 2.5-4.1 5.7-7 9.6-8.8C20.7.9 24.8 0 29 0c1 0 2 .1 3.1.2 1 .1 2.1.3 3.2.4 2.8.5 5.6 1.2 8.3 2.3 2.7 1.1 5.3 2.4 7.6 3.8L44.8 21c-2.1-1.5-4.3-2.9-6.6-4.1-2.3-1.2-4.8-1.7-7.5-1.7h-1c-1.8.2-3.4 1-5 2.4-1.5 1.4-2.3 2.8-2.3 4.4 0 .2 0 .5.1.7 0 .2.1.5.3.7.2.5.4 1 .8 1.5s.8.9 1.3 1.3c.9.7 2.1 1.3 3.7 1.9 1.6.6 3.3 1.1 5.1 1.7 1.5.4 2.9.8 4.3 1.1 1.4.3 2.6.7 3.5 1 4.3 1.5 7.6 4.1 9.8 7.7 2.2 3.6 3.3 7.4 3.4 11.4v.5c-.1.5-.1 1-.2 1.5Zm60 6.2v16.6H69.1v-74h45.4V18H89v12.9h24v15.8H89v12.5h25.5Zm76.6-2.9c-2.4 5.1-5.8 9.3-10.3 12.5-3.6 2.5-7.6 4.2-11.8 5.1-4.3.9-8.6 1.5-12.9 1.7-1.2.1-2.5.1-3.7.1h-23.8v-74h25.1c1.2 0 2.4 0 3.5.1 4.2.2 8.3.8 12.4 1.7 4.1.9 7.8 2.6 11.2 5.1 4.3 3 7.7 7 10.1 12 2.4 5 3.8 10.1 4.1 15.3.1.5.1.9.1 1.4v3c-.3 5.6-1.6 10.9-4 16ZM174.7 38c0-.3 0-.6-.1-.9-.2-2.9-.9-5.8-2.1-8.5-1.2-2.7-2.9-4.9-5.1-6.6-1.6-1.3-3.4-2.2-5.4-2.7-2-.5-4-.7-6.1-.8h-7.5v40.8c.2 0 .5 0 .8.1.3 0 .5.1.8.1.3 0 .6 0 .8.1.2 0 .5.1.7.1.8 0 1.6 0 2.4-.1.9 0 1.7-.1 2.4-.2 2-.2 4-.5 5.9-1 1.9-.5 3.7-1.4 5.2-2.4 2.5-1.8 4.3-4.2 5.5-7.3 1.2-3.1 1.8-6.3 1.8-9.6V38Zm109.6 3.9c0 .8-.1 1.6-.3 2.4-.2 1.6-.4 3.2-.9 4.8-.4 1.6-1 3.2-1.6 4.7-3.3 7.5-8.3 13.3-15.2 17.5-6.9 4.1-14.1 6.2-21.7 6.2-.5 0-1.1 0-1.6-.1-.5 0-1-.1-1.6-.1-2.6-.2-5.2-.7-7.8-1.4-2.6-.7-5.1-1.7-7.5-2.9-6.5-3.4-11.6-8.3-15.3-14.6-3.7-6.3-5.6-12.9-5.6-19.7 0-1 0-2 .1-3s.2-2.1.5-3.1c.4-2 .9-4 1.6-6.1.7-2 1.5-4 2.6-5.9 3.6-6.6 8.5-11.6 14.9-15.1 6.3-3.5 13-5.2 19.9-5.2.9 0 1.9 0 2.8.1 1 .1 1.9.2 2.8.2 2.9.4 5.7 1.1 8.5 2.1s5.5 2.3 8.1 3.9c5.5 3.6 9.8 8.3 12.8 14.2 3 5.9 4.5 12.1 4.5 18.5v2.6Zm-20.2-4.2c0-.5-.1-.9-.1-1.4-.4-3.3-1.4-6.5-3-9.6-1.6-3.1-3.9-5.5-6.7-7.2-.8-.4-1.5-.7-2.3-1-.8-.3-1.5-.6-2.3-.8-.8-.2-1.5-.3-2.3-.4-.8-.1-1.5-.2-2.3-.2-3.9 0-7.6 1.2-10.9 3.7-3.3 2.5-5.7 5.8-7 9.9-.1.2-.1.3-.2.5 0 .2-.1.3-.1.5l-.6 2.1c-.2.7-.3 1.5-.5 2.3-.1.5-.1 1.1-.2 1.6 0 .5-.1 1-.1 1.6v.9c0 .3 0 .6.1.9.2 4.1 1.5 8 3.8 11.7 2.3 3.7 5.4 6.1 9.5 7.3.5.2.9.3 1.4.4l1.5.3c.5.1.9.1 1.4.2.5 0 .9.1 1.4.1 4.1 0 7.8-1.2 11.1-3.7 3.3-2.4 5.7-5.7 7.1-9.8l.6-2.4c.2-.9.3-1.7.4-2.6.1-.5.1-1.1.2-1.6 0-.5.1-1 .1-1.5v-1.8Zm87.5 38.1-28.1-38.2c-.8-.9-1.5-2-2.2-3.3-.7-1.3-1.4-2.6-2-4-.5-1-.9-2-1.3-3s-.8-1.9-1.2-2.7c.4 2.4.7 4.8.9 7.3.2 2.5.3 5 .3 7.4v36.5h-19.5v-74H318l27.9 38c.7 1.1 1.4 2.2 2 3.4.7 1.2 1.3 2.4 1.9 3.7.5 1 .9 2 1.4 3 .5 1 .9 2 1.4 2.9-.1-.9-.2-1.7-.3-2.4L352 48c-.2-1.5-.3-3.1-.3-4.8-.1-1.6-.1-3.3-.1-5V1.9H371v74h-19.4v-.1Zm85.1 0L433 62.5h-28.6l-3.8 13.4h-20l25.4-74h25.2l25.7 74h-20.2v-.1Zm-15.5-52.1c-.4-1.2-.8-2.4-1.1-3.7-.3-1.3-.6-2.5-.9-3.8-.2-.5-.3-.9-.3-1.3-.1-.4-.2-.8-.2-1.2l-.3 1.2c-.1.4-.2.9-.3 1.3-.1.2-.1.3-.1.4 0 .1 0 .3-.1.4-.2 1.2-.5 2.3-.8 3.4l-.9 3.3-7.5 24.5h20.1l-7.6-24.5Z" fill="#fff"/></symbol><symbol id="sedona"><path fill="#fff" d="M27.32 26.64c0 .25-.05.45-.05.65-.26 2.01-.9 3.97-1.96 5.78a11.46 11.46 0 0 1-4.26 4.22c-.65.3-1.35.55-2.05.8-.7.2-1.4.4-2.1.56-.61.1-1.16.2-1.76.25-.6.05-1.16.1-1.7.1h-.6c-2.31-.1-4.62-.6-6.88-1.56-2.2-1-4.2-2.26-5.96-3.87l4.66-7.49.1.1.1.1a24.24 24.24 0 0 0 3.56 3.22c1.3.96 2.86 1.5 4.56 1.61.05 0 .1 0 .15.05.05 0 .1.05.15.05.05 0 .1 0 .15.05.05 0 .1.05.15.05.15 0 .3 0 .5-.05.15 0 .35-.05.5-.1a4.77 4.77 0 0 0 3.06-2.01c.05-.1.1-.15.1-.25.05-.1.1-.15.1-.25.1-.25.15-.5.15-.76.05-.25.05-.45.05-.65 0-1.06-.45-1.96-1.35-2.66-.9-.7-1.9-1.26-2.96-1.66-.45-.15-.85-.3-1.2-.4-.4-.1-.75-.2-1.1-.26-.05 0-.1 0-.1-.05-.05 0-.1-.05-.1-.05-1.9-.45-3.71-1.2-5.37-2.26a8.17 8.17 0 0 1-3.75-5.68c-.1-.45-.16-.85-.2-1.35-.06-.15-.06-.3-.06-.46v-.45c0-.3 0-.6.05-.95 0-.3.05-.6.15-.96.1-.75.3-1.56.6-2.31.26-.75.6-1.46 1.06-2.11A10.98 10.98 0 0 1 8.52 1.2C10.37.45 12.43 0 14.53 0c.5 0 1 .05 1.56.1.5.05 1.05.15 1.6.2 1.4.25 2.8.6 4.16 1.16 1.36.55 2.66 1.2 3.81 1.9l-3.2 7.2a28 28 0 0 0-3.31-2.07 7.95 7.95 0 0 0-3.76-.85h-.5c-.9.1-1.7.5-2.51 1.2-.75.7-1.15 1.41-1.15 2.22 0 .1 0 .25.05.35 0 .1.05.25.15.35.1.25.2.5.4.75.2.26.4.46.65.66.45.35 1.05.65 1.85.95.8.3 1.66.56 2.56.86.75.2 1.45.4 2.16.55.7.15 1.3.35 1.75.5a9.08 9.08 0 0 1 4.91 3.87c1.1 1.81 1.66 3.72 1.7 5.73v.25c-.04.25-.04.5-.1.76Zm30.07 3.11v8.35H34.63V.9H57.4v8.15H44.6v6.48h12.03v7.94H44.6v6.28h12.78Zm38.39-1.45a15.79 15.79 0 0 1-5.16 6.28 16.31 16.31 0 0 1-5.92 2.56c-2.15.45-4.3.75-6.46.85-.6.06-1.26.06-1.86.06H64.45V.85h12.58a36.98 36.98 0 0 1 7.97.9c2.06.46 3.91 1.32 5.62 2.57a15.28 15.28 0 0 1 5.06 6.03c1.2 2.52 1.9 5.08 2.05 7.7.05.24.05.44.05.7v1.5c-.15 2.82-.8 5.48-2 8.05Zm-8.22-9.2c0-.15 0-.3-.05-.45-.1-1.46-.45-2.92-1.05-4.28a8.44 8.44 0 0 0-2.56-3.31c-.8-.66-1.7-1.1-2.7-1.36-1-.25-2.01-.35-3.06-.4h-3.76v20.5c.1 0 .25 0 .4.05.15 0 .25.05.4.05.15 0 .3 0 .4.05.1 0 .25.05.35.05.4 0 .8 0 1.2-.05.46 0 .86-.05 1.2-.1 1.01-.1 2.01-.25 2.97-.5.95-.25 1.85-.7 2.6-1.2a7.85 7.85 0 0 0 2.76-3.67c.6-1.56.9-3.17.9-4.83v-.55Zm54.93 1.96c0 .4-.05.8-.15 1.2-.1.8-.2 1.61-.45 2.42a18.88 18.88 0 0 1-8.42 11.16 20.93 20.93 0 0 1-10.88 3.11c-.25 0-.55 0-.8-.05-.25 0-.5-.05-.8-.05a21.3 21.3 0 0 1-7.67-2.16 18.93 18.93 0 0 1-7.67-7.34 19.39 19.39 0 0 1-2.8-9.9c0-.5 0-1 .05-1.5.05-.51.1-1.06.25-1.57.2-1 .45-2 .8-3.06.35-1 .75-2.01 1.3-2.97a18.44 18.44 0 0 1 7.47-7.59A20.26 20.26 0 0 1 124.1.2c.5.05.95.1 1.4.1a21.14 21.14 0 0 1 8.32 3.02 18.33 18.33 0 0 1 6.42 7.13 20.36 20.36 0 0 1 2.25 9.3v1.3Zm-10.12-2.11c0-.25-.05-.46-.05-.7-.2-1.66-.7-3.27-1.5-4.83a9 9 0 0 0-3.36-3.62c-.4-.2-.76-.35-1.16-.5-.4-.15-.75-.3-1.15-.4-.4-.1-.75-.16-1.15-.2a8.87 8.87 0 0 0-6.62 1.76 9.88 9.88 0 0 0-3.5 4.97c-.06.1-.06.15-.1.25 0 .1-.06.15-.06.25l-.3 1.06c-.1.35-.15.75-.25 1.15-.05.25-.05.56-.1.8 0 .26-.05.51-.05.81v.45c0 .15 0 .3.05.46.1 2.06.75 4.02 1.9 5.88a8.08 8.08 0 0 0 4.77 3.66c.25.1.45.16.7.2l.75.16c.25.05.45.05.7.1.25 0 .45.05.7.05 2.06 0 3.91-.6 5.57-1.86a9.9 9.9 0 0 0 3.86-6.13c.1-.46.15-.86.2-1.31.05-.25.05-.55.1-.8 0-.26.05-.5.05-.76v-.9Zm43.85 19.15-14.08-19.2c-.4-.46-.75-1-1.1-1.66-.35-.65-.7-1.3-1-2.01-.26-.5-.46-1-.66-1.51a18 18 0 0 0-.6-1.36 42.83 42.83 0 0 1 .6 7.4V38.1h-9.77V.9h9.77L173.37 20c.35.56.7 1.1 1 1.71.35.6.65 1.2.95 1.86.25.5.45 1 .7 1.5.25.51.45 1.01.7 1.47l-.15-1.21-.15-1.2a18.2 18.2 0 0 1-.15-2.42c-.05-.8-.05-1.66-.05-2.51V.95h9.73v37.2h-9.73v-.05Zm42.66 0-1.86-6.69H202.7l-1.9 6.74h-10.03L203.49.95h12.63L229 38.15h-10.12v-.05Zm-7.78-26.2c-.2-.6-.4-1.2-.55-1.86l-.46-1.9c-.1-.26-.15-.46-.15-.66-.05-.2-.1-.4-.1-.6l-.15.6-.15.65c-.05.1-.05.15-.05.2 0 .05 0 .15-.05.2-.1.6-.25 1.16-.4 1.71l-.45 1.66-3.76 12.31h10.08l-3.81-12.3Z"/></symbol><symbol id="icon"><path fill="#81B3D3" d="M0 0h32v32H0z"/><path d="M10.723 19.743c.023.023.034.045.034.067.023 0 .046.01.068.033.613.66 1.305 1.275 2.077 1.847.771.55 1.657.846 2.655.89.023 0 .046.011.068.033h.102c.023 0 .046.011.069.033h.374c.114-.022.216-.044.306-.066.364-.066.711-.2 1.022-.396.34-.198.601-.44.783-.725l.068-.132.068-.132c.045-.154.08-.297.102-.43a2.16 2.16 0 0 0 .034-.362c0-.593-.272-1.088-.817-1.484a5.897 5.897 0 0 0-1.702-.957 5.066 5.066 0 0 0-.715-.197 9.509 9.509 0 0 0-.647-.165h-.068c-.023-.022-.045-.033-.068-.033a11.341 11.341 0 0 1-3.132-1.254c-.976-.593-1.645-1.44-2.009-2.54-.07-.23-.139-.46-.204-.692a7.682 7.682 0 0 1-.102-.759.94.94 0 0 1-.034-.23V11.3a4.3 4.3 0 0 1 .102-.528c.07-.45.184-.89.34-1.32.16-.439.364-.835.613-1.187.726-1.165 1.657-2 2.792-2.506A8.92 8.92 0 0 1 16.51 5c.295 0 .59.022.885.066.319.022.636.055.953.099.828.135 1.638.356 2.417.66.817.307 1.566.67 2.247 1.088l-1.872 4.057A13.172 13.172 0 0 0 19.2 9.816a5.004 5.004 0 0 0-2.213-.495h-.272c-.522.066-1.01.297-1.464.692-.454.374-.68.781-.68 1.22v.199a.821.821 0 0 0 .101.198c.046.154.125.296.239.429.113.131.238.252.374.362.25.198.613.385 1.09.561.476.154.975.308 1.497.462.431.11.851.22 1.26.33.409.088.749.176 1.021.264 1.271.44 2.224 1.176 2.86 2.21.635 1.01.964 2.088.987 3.232v.165c0 .132-.011.264-.034.396v.362a7.976 7.976 0 0 1-1.157 3.266 6.204 6.204 0 0 1-2.485 2.375c-.388.176-.786.33-1.192.461-.406.11-.814.209-1.226.297-.337.066-.678.11-1.02.132a7.706 7.706 0 0 1-.988.066h-.375c-1.361-.044-2.7-.33-4.017-.858A12.568 12.568 0 0 1 8 23.965l2.723-4.222Z" fill="#fff"/></symbol><symbol id="mail-icon"><path fill="#E6E6E6" d="M0 0h58v58H0z"/><path fill="#000" d="m29 31-1-.3-7-3.7v7c0 .5.5 1 1 1h14c.5 0 1-.5 1-1v-7l-7 3.7-1 .3Zm7-8H22a1 1 0 0 0-1 1v.8l8 4.2 8-4.2V24c0-.5-.5-1-1-1Z"/></symbol><symbol id="phone-icon"><path fill="#E6E6E6" d="M0 0h58v58H0z"/><path fill="#010101" d="M23.6 27.8c1.4 2.8 3.8 5.1 6.6 6.6l2.2-2.2c.3-.3.7-.4 1-.2 1.1.4 2.3.6 3.6.6.6 0 1 .4 1 1V37c0 .6-.4 1-1 1a17 17 0 0 1-17-17c0-.6.4-1 1-1h3.5c.6 0 1 .4 1 1 0 1.2.2 2.4.6 3.6.1.3 0 .7-.2 1l-2.3 2.2Z"/></symbol><symbol id="tick"><path d="M21.805 1.307 20.76.222c-.285-.296-.856-.296-1.141 0L8.298 11.957 2.403 5.843c-.286-.296-.856-.296-1.142 0L.214 6.928c-.285.295-.285.887 0 1.183l7.419 7.692c.19.197.38.197.57.197.191 0 .381-.099.571-.197L21.615 2.49c.476-.296.476-.789.19-1.183Z" fill="#333"/></symbol><symbol id="icon-burger"><path fill="#81B3D2" d="M37.74 23.85H2.26A2.23 2.23 0 0 0 0 26.03v1.77c0 1.17 1 2.13 2.26 2.13h.52v.5a5.12 5.12 0 0 0 5.2 5.02h24.04c2.89 0 5.2-2.28 5.2-5.01v-.51h.52c1.21 0 2.26-.96 2.26-2.18v-1.77c0-1.12-1-2.13-2.26-2.13Zm-2.04 6.59c0 1.92-1.63 3.49-3.63 3.49H7.93c-2 0-3.63-1.57-3.63-3.5v-.5h31.4v.5Zm2.73-2.69c0 .36-.32.66-.69.66H2.26a.68.68 0 0 1-.69-.66v-1.77c0-.3.32-.61.69-.61H37.8c.36 0 .68.3.68.66v1.72h-.05Zm-29.93-8 2.84 2.02 2.89-2.02 2.88 2.02L20 19.75l2.83 2.02 2.9-2.02 2.88 2.02 2.89-2.02 2.88 2.02 3.31-2.38-.9-1.21-2.4 1.67-2.9-2.03-2.88 2.03-2.89-2.03-2.89 2.03L20 17.82l-2.89 2.03-2.88-2.03-2.9 2.03-2.83-2.03-2.88 2.03-2.42-1.67-.94 1.21 3.36 2.38 2.88-2.02Zm28.72-3.45c0-.3.05-1.31 0-1.52C36.85 6.88 29.29.55 20 .55 10.7.55 3.1 6.88 2.73 14.78v1.52h34.49ZM20 2.07c8.4 0 15.33 5.67 15.64 12.71H4.3C4.67 7.74 11.6 2.07 20 2.07Z"/><path fill="#81B3D2" d="M20 9.16c.58 0 1.05-.45 1.05-1.01S20.58 7.14 20 7.14c-.58 0-1.05.45-1.05 1 0 .57.47 1.02 1.05 1.02Zm-4.2-2.48c.58 0 1.05-.45 1.05-1.01s-.47-1.02-1.05-1.02c-.58 0-1.05.46-1.05 1.02s.47 1 1.05 1Zm8.4 0c.58 0 1.05-.45 1.05-1.01s-.47-1.02-1.05-1.02c-.58 0-1.05.46-1.05 1.02s.47 1 1.05 1Z"/></symbol><symbol id="icon-gift"><path fill="#81B3D2" d="M30.58 11.2h-12.4c6.91-3.44 7.47-5.62 7.22-6.83-.56-1.98-2.85-3.5-4.98-2.69-2.8 1.07-3.56 5.22-4.32 8.2-.96-3.03-1.88-6.88-4.06-8.85A3.7 3.7 0 0 0 9.14 0c-2.03.2-4.92 2.69-3.7 5.47 1.11 2.69 4.82 4.4 7.3 5.78H1.43c-.81 0-1.42.65-1.42 1.41v5.68c0 .8.66 1.42 1.42 1.42h.15V38h28.96V19.77h.05c.81 0 1.42-.66 1.42-1.42v-5.68c0-.8-.66-1.46-1.42-1.46Zm-9.35-8.25c1.07-.15 2.5.66 2.64 1.62.2 1.37-1.67 2.63-2.54 3.2-1.27.85-2.49 1.3-3.65 2.02.4-1.88 1.27-6.54 3.55-6.84ZM9.75 7.91c-1.12-.76-3.25-2.23-3.2-3.9C6.6 2.2 9.45.72 10.97 2.1c1.93 1.67 2.85 5.57 3.56 8.3-1.63-.8-3.15-1.41-4.78-2.48Zm3 28.57h-9.7V19.77h9.7v16.71Zm0-18.23H1.52v-5.52h11.23v5.52Zm5.08 18.23h-3.6V12.73h3.6v23.75Zm11.17 0h-9.65V19.77h9.7v16.71H29Zm1.48-18.23H19.35v-5.52h11.13v5.52Z"/></symbol><symbol id="icon-house"><path fill="#81B3D2" d="M15.9 33.8h8.35V21.65H15.9V33.8Zm6.84-1.47h-5.32v-9.2h5.27v9.2h.05Z"/><path fill="#81B3D2" d="m38.4 20.63 1.1-1.07-5.17-5.04V.8h-7.2v6.7L19.97.58.5 19.61l1.1 1.07 4.07-3.97v19.23H3.63v1.48H37v-1.48h-2.66V16.66l4.07 3.97ZM28.64 2.3h4.13v10.74l-4.13-4.02V2.3Zm4.18 33.58H7.23v-20.7L19.97 2.71l12.8 12.46v20.7h.05Z"/><path fill="#81B3D2" d="M16.06 14.42a4.01 4.01 0 0 0 4.02 3.97 4.03 4.03 0 0 0 4.07-3.97 3.98 3.98 0 0 0-4.07-3.92 3.94 3.94 0 0 0-4.02 3.92Zm4.02-2.54a2.59 2.59 0 0 1 2.6 2.54 2.58 2.58 0 0 1-2.6 2.55 2.59 2.59 0 0 1-2.61-2.55c0-1.37 1.2-2.54 2.6-2.54Zm-9.19 9.77H9.32v1.98h1.57v-1.98Zm3.08 0H12.4v1.98h1.57v-1.98Zm-3.08 3.05H9.32v1.98h1.57V24.7Zm3.08 0H12.4v1.98h1.57V24.7Zm13.57-3.05h-1.56v1.98h1.56v-1.98Zm3.14 0H29.1v1.98h1.57v-1.98Zm-3.14 3.05h-1.56v1.98h1.56V24.7Zm3.14 0H29.1v1.98h1.57V24.7Z"/></symbol><symbol id="triangle"><mask id="a" width="320" height="37" x="0" y="0" maskUnits="userSpaceOnUse" style="mask-type:alpha"><path fill="#C4C4C4" d="M0 0h320v37H0z"/></mask><g fill="#fff" fill-rule="evenodd" clip-rule="evenodd" mask="url(#a)"><path d="M-225 0h384v37L-225 0Zm768 0H159v37L543 0Z"/></g></symbol><symbol id="welcome-phone"><path fill="#766458" d="m101.39 42.8-.13.13a3.83 3.83 0 0 1-2.76 1.34l1.72-3c1.1-1.89.06-3.72-1.66-3.72-1.41 0-2.51.55-3.56 2.38l-.92 1.59-.73 1.28-.13.13c-1.35 1.53-2.64 2.75-3.43 2.75-.43 0-.62-.3-.19-.98l3.93-6.85H95l.55-.85h-1.53l1.72-3H93.9l-1.72 3h-1.66l-.55.85h1.66l-3.69 6.36c-.8 1.35-.24 2.63 1.23 2.63 1.05 0 2.27-.8 3.38-1.9 0 2.33 3.25 2.82 5.21.31h.43c1.1 0 2.83-.67 3.75-1.77 0-.3-.31-.55-.55-.68Zm-3.93.13h-.06a1.1 1.1 0 0 0-.92 1.7v.07c-.86 1.47-2.95 1.22-1.9-.73l1.4-2.39.86-1.47c1.3-2.2 3.07-1.34 1.97.55l-1.35 2.27Zm29.39-.13-.12.13c-1.35 1.53-3 2.75-4.3 2.75-1.1 0-1.77-.74-.98-2.2l.19-.3c1.16.48 3.43.24 4.78-2.15l.25-.43c.98-1.7.06-2.93-1.47-2.93-1.48 0-2.64.8-3.44 2.14l-1.78 3.06-.12.12c-1.35 1.53-2.64 2.75-3.44 2.75-.43 0-.61-.3-.18-.98l2.64-4.65c.8-1.4.06-2.38-.99-2.38-.8 0-1.65.43-2.57 1.4l2.94-5.07h-1.84l-5.1 8.74-.12.13c-1.35 1.53-2.64 2.75-3.43 2.75-.43 0-.62-.3-.19-.98l3.93-6.85h1.47l.56-.86H112l1.72-3h-1.84l-1.72 3h-1.66l-.55.86h1.66l-3.68 6.36c-.8 1.35-.25 2.63 1.22 2.63.74 0 1.54-.37 2.34-.98l-.5.8h1.85l2.76-4.83c2.82-3.55 4.05-3.06 3.31-1.72l-2.4 4.16c-.79 1.35-.24 2.63 1.24 2.63 1.1 0 2.33-.85 3.43-1.96.06 1.17 1.05 1.96 2.52 1.96 2.08 0 4.17-1.59 5.64-3.36.07-.37-.24-.61-.49-.74Zm-3.5-2.56c1.05-1.84 2.95-1.53 1.85.36l-.25.43c-.86 1.47-2.09 1.47-2.76 1.22l1.17-2.01Zm70.46 2.56-.12.13c-.68.8-1.48 1.46-2.21 2.01.61-1.77.43-4.4 1.6-6.78l-1.36-.74c-.73 1.04-2.39 3.43-4.1 5.38l-.13.13c-1.35 1.53-2.64 2.75-3.44 2.75-.43 0-.61-.3-.18-.98l3.92-6.85h-1.84l-3.25 5.69c-1.41 1.28-2.45 1.95-2.82 1.83-.43-.18 0-.85.24-1.28l3.56-6.24h-1.84l-2.88 4.95-.13.13a3.83 3.83 0 0 1-2.76 1.34l1.72-3c1.1-1.89.06-3.72-1.66-3.72-1.4 0-2.51.55-3.56 2.38l-.91 1.59-.74 1.28-.12.13c-1.36 1.53-3.01 2.75-4.3 2.75-1.1 0-1.78-.74-.98-2.2l.18-.3c1.17.48 3.44.24 4.79-2.15l.24-.43c.99-1.7.07-2.93-1.47-2.93-1.47 0-2.64.8-3.44 2.14l-1.78 3.06-.12.12c-1.53 1.77-2.82 2.87-4.3 3.48l4.12-7.03h-1.1c0-.73-.8-1.77-1.9-1.77-1 0-2.4.8-3.14 2.14l-1.78 3.06-.12.12c-1.35 1.53-2.64 2.75-3.44 2.75-.43 0-.61-.3-.18-.98l1.84-3.18c.61-1.1.3-1.77-.25-2.5l-1.04-1.23c-.25-.3-.25-.73.12-1.04l-.98-1.04c-1.04.92-1.1 1.96-.49 2.82l.18.18a45.9 45.9 0 0 1-3.13 4.1l-.12.12a3.83 3.83 0 0 1-2.76 1.34l1.72-3c1.1-1.89.06-3.72-1.66-3.72-1.41 0-2.52.55-3.56 2.38l-.92 1.6-.74 1.28-.12.12c-1.53 1.77-2.82 2.87-4.3 3.48l4.12-7.03h-1.1c0-.73-.8-1.77-1.91-1.77-.98 0-2.4.8-3.13 2.14l-2.58 4.46c-.8 1.35-.24 2.63 1.23 2.63.5 0 1.1-.24 1.78-.61l-.5.86c-2.45.73-4.04 1.77-4.04 3.11 0 1.78 2.7 2.14 4.05-.12l1.41-2.38a11.4 11.4 0 0 0 4.42-2.75c0 2.32 3.25 2.8 5.22.3h.42c1.11 0 2.83-.67 3.75-1.77.86-1.04 1.6-1.96 3.07-3.92l.24.31c.25.3.31.67.13 1.04l-1.97 3.36c-.8 1.35-.24 2.63 1.23 2.63.92 0 1.96-.6 2.94-1.47 0 .86.56 1.47 1.6 1.47.5 0 1.1-.24 1.78-.6l-.43.72c-2.45.74-4.05 1.78-4.05 3.12 0 1.78 2.7 2.14 4.05-.12l1.41-2.38a11.79 11.79 0 0 0 4.48-2.82c.06 1.17.98 1.96 2.52 1.96 1.47 0 3-.86 4.23-1.96-.06 2.39 3.26 2.88 5.22.37h.43a4.6 4.6 0 0 0 2.03-.55c-.5 1.28-.07 2.14.98 2.14.98 0 2.14-.92 3-1.77-.18.98.43 1.77 1.6 1.77 1.53 0 3.25-1.59 4.79-3.36 1.04-1.23 1.96-2.51 2.64-3.37-.74 1.9-.31 5.32-2.1 5.32-.6 0-.85-.67-.85-.67l-1.17.61s.31 1.47 2.03 1.47c.18 0 .3 0 .49-.06h.06c1.9-.25 3.75-1.71 5.1-3.3a.94.94 0 0 0-.68-.68Zm-26.33-2.56c1.05-1.84 2.95-1.53 1.84.36l-.24.43c-.86 1.47-2.09 1.47-2.77 1.22l1.17-2.01Zm-35.1 9.54c-.37.67-.98.6-.98.06 0-.5.42-1.04 1.84-1.6l-.86 1.54Zm.86-4.1c-.43 0-.62-.3-.19-.98l2.58-4.46c.98-1.72 2.95-1.29 2.03.36l-1.42 2.45c-1.1 1.77-2.27 2.63-3 2.63Zm11.29-2.75h-.06a1.1 1.1 0 0 0-.92 1.7v.07c-.86 1.47-2.95 1.22-1.9-.73l1.4-2.39.86-1.47c1.3-2.2 3.07-1.34 1.97.55l-1.35 2.27Zm11.54 6.85c-.37.67-.98.6-.98.06 0-.5.42-1.04 1.84-1.6l-.86 1.54Zm.86-4.1c-.43 0-.62-.3-.19-.98l2.58-4.46c.98-1.72 2.94-1.29 2.02.36l-1.4 2.45c-1.11 1.77-2.28 2.63-3.01 2.63Zm18.1-2.75h-.06a1.1 1.1 0 0 0-.92 1.7v.07c-.86 1.47-2.95 1.22-1.9-.73l1.4-2.39.87-1.47c1.29-2.2 3.07-1.34 1.96.55l-1.35 2.27Zm-95.19-2.08H62.11v1.22h17.73v-1.22Zm139.32 0h-17.74v1.22h17.74v-1.22Z"/><path fill="#81B3D3" d="M100.03 0h4.73l-.74 27.46h-8.9L93.9 16.14l-1.23 11.32h-8.96L83.04 0h4.66l.37 22.75h.49l3-22.75h4.67l3 22.75h.5l.3-22.75Zm19.52 22.75v4.77h-12.83V0h12.83v4.7h-8.16v6.61h6.5v4.71h-6.5v6.67h8.16v.06Zm13.13 0v4.77h-11.23V0h4.67v22.75h6.56Zm9.95-5.38 4.72-1.1v8.31a2.92 2.92 0 0 1-2.88 2.88h-7.06a2.92 2.92 0 0 1-2.88-2.88V2.88A2.88 2.88 0 0 1 137.4 0h7.06a2.92 2.92 0 0 1 2.88 2.87v5.57l-4.72 1.1v-4.9h-3.38V22.7h3.38v-5.32ZM160.12 0A2.92 2.92 0 0 1 163 2.87v21.65a2.92 2.92 0 0 1-2.88 2.87h-7.06a2.92 2.92 0 0 1-2.88-2.87V2.87A2.88 2.88 0 0 1 153.06 0h7.06Zm-1.84 4.7h-3.38v18.05h3.38V4.7ZM178.34 0h4.67v27.46h-4.67V13.94l-1.9 6.97h-4.6L170 13.94v13.52h-4.67V0H170l4.17 13.27L178.34 0Zm19.83 22.75v4.77h-12.83V0h12.83v4.7H190v6.61h6.5v4.71H190v6.67h8.16v.06Z"/><path fill="#fff" d="M27.19 96.37a12.52 12.52 0 0 0-7.92-3.06c-2.2 0-5.1 1.29-5.1 3.86 0 2.69 3.26 3.73 5.28 4.34l3.07.92c6.39 1.9 11.36 5.07 11.36 12.47 0 4.52-1.1 9.23-4.73 12.3-3.62 3.05-8.4 4.27-13 4.27A28.64 28.64 0 0 1 0 126.27l4.97-9.47c3 2.63 6.5 4.7 10.62 4.7 2.82 0 5.77-1.4 5.77-4.58 0-3.36-4.67-4.47-7.24-5.2-7.5-2.2-12.4-4.1-12.4-12.96 0-9.3 6.63-15.35 15.83-15.35 4.6 0 10.31 1.47 14.36 3.79l-4.72 9.17Zm29.03-1.71v7.64h13.44v10.1H56.22v7.88h14.23v10.1H44.31V84.62h26.14v10.1l-14.23-.07ZM79.3 84.63h16.93c12.77 0 23.32 10.03 23.32 22.87 0 12.84-10.62 22.87-23.32 22.87H79.29V84.63Zm11.96 35.65h2.7c7.12 0 13.2-3.91 13.2-12.78 0-8.2-5.4-12.78-13.08-12.78h-2.82v25.56Zm84.69-13.64c0 14.8-10.68 25.26-25.4 25.26-14.74 0-25.41-10.46-25.41-25.26 0-13.81 12.2-23.54 25.4-23.54s25.41 9.73 25.41 23.55Zm-38.42.07c0 7.89 5.83 13.63 12.95 13.63 7.12 0 12.95-5.75 12.95-13.63 0-6.3-5.83-12.11-12.95-12.11-7.06 0-12.95 5.8-12.95 12.1Zm44.74-22.08h11.97l21.85 28h.12v-28h11.97v45.74H216.2l-21.85-28.07h-.12v28.07h-11.97V84.63Zm67.57 37.79-3.19 7.95h-12.64l17.67-45.74h13.01L282 130.37h-12.7l-3.01-7.95h-16.45Zm8.35-23.66h-.13l-4.9 14.55h9.94l-4.91-14.55ZM66.22 175.93c4.73-1.6 5.03-7.46.43-7.46-1.29 0-2.82.91-3.87 2.69l-6.26 10.82c-.3.49-.55.92-.92 1.34-1.6-2.2-1.16-5.5 1.1-6.97l-.91-1.16c-4.91 3.12-3.44 12.05 4.72 12.05 6.94 0 10.19-8.32 5.71-11.31Zm-5.77 9.53c-1.41 0-2.45-.3-3.37-.79.42-.49.8-1.04 1.16-1.65l3.93-6.79.61.06c5.46 1.17 3.32 9.18-2.33 9.18Zm2.52-10.57 1.9-3.24c1.72-2.94 3.87-1.23 2.7.97-.92 1.72-2.21 2.2-4.6 2.27Z"/><path fill="#fff" d="M85.92 183.45c-.37 1.34.37 2.5 1.9 2.5.92 0 2.09-.6 3.25-1.52.13.91.86 1.53 2.03 1.53 1.23 0 2.58-.86 3.93-2.08-.25 1.22.3 2.08 1.47 2.08 1.29 0 2.7-1.17 3.8-2.2-.24 1.22.5 2.2 1.97 2.2 1.9 0 4.11-2.08 6.08-4.28 0-.07-.07-.07-.07-.13 1.3-1.47 2.4-3.06 3.26-4.16-.92 2.39-.43 6.73-2.64 6.73-.8 0-1.1-.86-1.1-.86l-1.48.74s.43 1.9 2.58 1.9c.24 0 .43 0 .67-.07h.06c1.72-.24 3.38-1.28 4.85-2.57.06 1.53 1.23 2.63 3.13 2.63 2.64 0 5.28-2.07 7.18-4.28-.18-.3-.55-.67-.86-.8l-.18.2c-1.66 1.95-3.8 3.48-5.46 3.48-1.41 0-2.27-.92-1.23-2.75l.25-.43c1.47.6 4.3.3 6.07-2.7l.3-.54c1.23-2.14.07-3.73-1.83-3.73-1.9 0-3.38.97-4.36 2.69l-2.27 3.85h-.06l-.19.18c-.86.98-1.9 1.9-2.82 2.51.74-2.2.55-5.63 2.03-8.56l-1.72-.92c-.98 1.35-3.07 4.34-5.16 6.79l.06.06-.06.12c-1.66 1.96-3.31 3.49-4.36 3.49-.49 0-.8-.37-.24-1.29l4.97-8.68h-2.33l-4.11 7.22c-1.78 1.59-3.13 2.5-3.56 2.32-.56-.24 0-1.1.3-1.59l4.55-7.89h-2.34L98.5 181c-.06-.06-.12-.06-.18-.12l-.19.18c-1.65 1.96-3.31 3.49-4.35 3.49-.5 0-.8-.37-.25-1.29l3.74-6.54h-1.35c.06-.98-.92-2.32-2.45-2.32-1.23 0-3 .98-4 2.69l-2.32 4.03c-.13-.12-.25-.18-.37-.24l-.19.18c-1.65 1.96-3.8 3.49-5.46 3.49-1.4 0-2.27-.92-1.22-2.75l2.39-4.16c1.35-2.32 3.74-1.9 2.33.49l-.3.55h1.9l.3-.55c1.23-2.14.06-3.73-1.84-3.73-1.9 0-3.37.98-4.36 2.69L78 181.06c-.06-.06-.12-.06-.18-.12l-.19.19c-1.65 1.95-3.8 3.48-5.46 3.48-1.4 0-2.27-.92-1.22-2.75l.24-.43c1.47.61 4.3.3 6.08-2.69l.3-.55c1.23-2.14.06-3.73-1.84-3.73-1.9 0-3.37.98-4.36 2.69l-2.45 4.16c-1.47 2.44-.18 4.77 2.58 4.77 2.02 0 4.1-1.23 5.77-2.82-.07 1.6 1.16 2.82 3.13 2.82 1.96-.13 3.86-1.23 5.52-2.63Zm35.6-5.87c1.34-2.33 3.74-1.9 2.33.49l-.31.55c-1.1 1.9-2.64 1.83-3.5 1.53l1.47-2.57Zm-33.27 5.68 3.25-5.62c1.23-2.14 3.75-1.6 2.58.49l-1.84 3.18c-1.41 2.2-2.82 3.24-3.74 3.24-.5-.06-.8-.37-.25-1.29Zm-14.85-5.68c1.35-2.33 3.74-1.9 2.33.49l-.3.55c-1.11 1.9-2.64 1.83-3.5 1.53l1.47-2.57Zm78.92 8.37c2.64 0 5.28-2.07 7.18-4.28-.18-.3-.55-.67-.86-.8l-.18.2c-1.66 1.95-3.8 3.48-5.46 3.48-1.41 0-2.27-.92-1.23-2.75l.25-.43c1.47.6 4.3.3 6.07-2.7l.3-.54c1.24-2.14.07-3.73-1.83-3.73-1.9 0-3.38.97-4.36 2.69l-2.27 3.85s-.06 0-.06-.06l-.19.18c-1.65 1.96-3.31 3.49-4.35 3.49-.5 0-.8-.37-.25-1.29l3.38-5.87c.98-1.77.06-3.05-1.23-3.05-.98 0-2.09.55-3.25 1.77l3.74-6.42h-2.4L138.77 181c-.06-.06-.18-.12-.25-.18l-.18.18c-1.66 1.96-3.31 3.49-4.36 3.49-.49 0-.8-.37-.24-1.29l4.97-8.68h1.9l.68-1.1h-1.9l2.2-3.8h-2.33l-2.2 3.8h-2.1l-.67 1.1h2.15l-4.67 8.07c-.98 1.71-.3 3.3 1.6 3.3 1.16 0 2.4-.73 3.68-1.83l-.92 1.59h2.33l3.56-6.12c3.56-4.46 5.16-3.91 4.18-2.2l-3.01 5.26c-.98 1.71-.3 3.3 1.6 3.3 1.4 0 3-1.1 4.47-2.56 0 1.52 1.17 2.62 3.07 2.62Zm1.9-8.37c1.36-2.33 3.75-1.9 2.34.49l-.3.55c-1.11 1.9-2.65 1.83-3.5 1.53l1.47-2.57Zm68.68 3.3-.18.18c-1.66 1.96-3.32 3.49-4.36 3.49-.5 0-.8-.37-.25-1.29l7.86-13.57h-2.33l-3.44 5.87a2.53 2.53 0 0 0-2.15-1.22c-1.23 0-3 .97-3.99 2.69l-2.27 3.91c-.06 0-.12-.06-.12-.06l-.18.18c-1.66 1.96-3.32 3.49-4.36 3.49-.5 0-.8-.37-.25-1.29l3.38-5.87c.98-1.77.06-3.05-1.23-3.05-.98 0-2.09.55-3.25 1.7l.86-1.52h-2.34l-3.74 6.42c-.06-.06-.12-.12-.25-.12l-.18.18c-1.66 1.96-3.31 3.49-4.36 3.49-.49 0-.8-.37-.24-1.29l3.74-6.54h-1.16c.06-.98-.93-2.32-2.46-2.32-1.23 0-3 .97-3.99 2.69l-2.27 3.85-.12.12c-1.66 1.96-3.32 3.49-4.36 3.49-.49 0-.8-.37-.24-1.29l2.33-4.03c.8-1.41.43-2.2-.3-3.12l-1.3-1.6c-.3-.42-.3-.9.13-1.34l-1.23-1.34c-1.35 1.16-1.41 2.5-.62 3.54l.19.25c-1.05 1.47-2.4 3.42-3.93 5.2l.18.18c-1.9 2.2-3.56 3.6-5.4 4.4l2.95-5.01h-2.27l-.25.43c-1.22 2.14-2.64 3.73-4.48 3.73-1.6 0-1.9-1.6-.49-3.98l.68-1.16c.43.06.86.12 1.35.12 8.28 0 12.27-11.06 4.97-11.06-1.29 0-2.83.91-3.87 2.69l-3.62 6.23a3.8 3.8 0 0 1-2.09-3.3c0-1.1.5-2.14 1.48-2.94l-.74-1.34a5.24 5.24 0 0 0-2.4 4.34c0 1.84 1.05 3.6 2.95 4.59l-.67 1.22c-1.66 2.81-1.35 5.93 1.96 5.93.98 0 1.84-.3 2.52-.73l-.61 1.04c-3.13.98-5.1 2.2-5.1 3.97 0 2.2 3.44 2.7 5.1-.18l1.77-3.06c2.4-.73 4.8-2.38 7.37-5.38-.06-.06-.06-.12-.12-.24 1.04-1.23 1.9-2.39 3.68-4.77l.3.36c.31.37.44.86.13 1.35l-2.46 4.28c-.98 1.71-.3 3.3 1.6 3.3 1.16 0 2.45-.73 3.68-1.83 0 1.04.68 1.83 2.03 1.83.92 0 2.08-.61 3.25-1.53.12.92.86 1.53 2.02 1.53 1.1 0 2.34-.67 3.5-1.71l-.86 1.47h2.34l3.56-6.18c3.55-4.46 5.15-3.85 4.1-2.14l-3 5.26c-.98 1.71-.3 3.3 1.6 3.3 1.22 0 2.57-.86 3.92-2.02-.12 1.16.62 2.02 2.03 2.02.92 0 2.09-.61 3.25-1.53.12.92.86 1.53 2.03 1.53 1.9 0 4.1-2.08 6.07-4.28-.24-.12-.67-.49-.98-.61Zm-47.8-8.68c.67-1.17 1.47-1.72 2.08-1.72 3.68 0 1.1 7.53-4.97 7.53h-.5l3.38-5.81Zm-4.98 17.49c-.49.85-1.29.73-1.29.12 0-.62.55-1.29 2.33-1.96l-1.04 1.84Zm24.37-8.44c-1.42 2.2-2.83 3.24-3.75 3.24-.49 0-.8-.37-.24-1.29l3.25-5.62c1.23-2.14 3.74-1.6 2.58.49l-1.84 3.18Zm22.52-.13c-1.41 2.33-2.82 3.37-3.8 3.37-.5 0-.8-.37-.25-1.29l3.25-5.62c1.23-2.14 3.74-1.6 2.58.49l-1.78 3.05Zm-71.87 21.78-.18.18c-1.66 1.95-3.31 3.48-4.36 3.48-.49 0-.8-.37-.24-1.28l3.37-5.87c.98-1.78.06-3.06-1.23-3.06-.98 0-2.08.55-3.25 1.71l.86-1.53h-2.33l-3.75 6.48c-.12-.06-.18-.12-.3-.18l-.19.18a4.79 4.79 0 0 1-3.5 1.72l2.22-3.8c1.4-2.44.12-4.7-2.1-4.7-1.77 0-3.18.73-4.53 3.06l-1.17 1.95-.98 1.71c-.06-.06-.12-.06-.19-.12l-.18.18c-1.9 2.2-3.56 3.61-5.4 4.4l6.38-10.88h-2.33l-4.11 7.16c-1.78 1.65-3.2 2.57-3.62 2.38-.56-.24 0-1.1.3-1.59l4.55-7.89h-2.34l-3.74 6.42c-.06-.06-.12-.06-.18-.12l-.19.19c-1.66 1.95-3.31 3.48-4.36 3.48-.49 0-.8-.37-.24-1.28l3.38-5.87c.98-1.78.06-3.06-1.23-3.06-.98 0-2.09.55-3.26 1.71l.86-1.53h-2.33l-3.74 6.42c-.06-.06-.13-.12-.25-.12l-.18.18c-1.66 1.96-3.32 3.49-4.36 3.49-.49 0-.8-.37-.24-1.28l3.74-6.55h-1.35c.06-.97-.92-2.32-2.46-2.32-1.22 0-3 .98-3.98 2.69l-2.4 4.16a5.66 5.66 0 0 0-.49-.3l-.18.18c-1.66 1.95-3.75 3.48-6.02 3.48-1.6 0-2.58-1.59-1.16-3.97l.67-1.16c.43.06.86.12 1.35.12 2.46 0 5.28-1.29 7.12-4.47.68-1.16.92-2.2.92-3.12 0-2.07-1.35-3.48-3.07-3.48-1.29 0-2.82.92-3.86 2.69l-3.63 6.24a3.8 3.8 0 0 1-2.08-3.3c0-1.1.49-2.15 1.47-2.94l-.74-1.34a5.23 5.23 0 0 0-2.39 4.34c0 1.83 1.04 3.6 2.95 4.58l-.68 1.22c-1.65 2.82-.67 5.94 2.64 5.94 2.58 0 4.54-1.16 6.14-2.7-.5 1.47.24 2.7 1.9 2.7.92 0 2.09-.62 3.25-1.53.13.91.86 1.53 2.03 1.53 1.1 0 2.33-.68 3.5-1.72l-.86 1.47h2.33l3.56-6.17c3.56-4.47 5.15-3.86 4.11-2.14l-3 5.25c-.99 1.72-.31 3.3 1.59 3.3 1.23 0 2.64-.85 3.99-2.07-.3 1.28.3 2.08 1.47 2.08 1.1 0 2.4-.92 3.44-1.9l-1.29 2.2c-3.13.92-5.16 2.2-5.16 3.98 0 2.2 3.44 2.69 5.1-.19l1.78-3.05c1.96-.61 3.86-1.84 5.89-3.8-.3 3.25 3.99 3.98 6.63.68h.49c.86 0 2.02-.3 3.07-.92l-1.54 2.7h2.33l3.56-6.19c3.56-4.46 5.16-3.85 4.12-2.13l-3.01 5.25c-.98 1.72-.3 3.3 1.6 3.3 1.9 0 4.1-2.07 6.07-4.28-.06-.18-.49-.55-.8-.67Zm-57.93-8.7c.67-1.15 1.47-1.7 2.09-1.7.85 0 1.28.55 1.28 1.4 0 2.14-2.64 6.06-6.26 6.06h-.49l3.38-5.75Zm8.22 9.06c-1.4 2.2-2.82 3.24-3.74 3.24-.5 0-.8-.37-.25-1.28l3.26-5.63c1.22-2.14 3.74-1.59 2.57.49l-1.84 3.18Zm17.68 8.44c-.5.85-1.3.73-1.3.12s.56-1.28 2.34-1.96l-1.04 1.84Zm15.7-8.69h-.12c-.73 0-1.34.62-1.34 1.41 0 .3.06.55.24.8v.06c-1.1 1.9-3.74 1.53-2.4-.92l1.79-3.06 1.1-1.9c1.66-2.75 3.87-1.64 2.46.74l-1.72 2.88Zm70.28.68a1.37 1.37 0 0 0-.86-.8l-.19.19c-.85.97-1.9 1.9-2.82 2.5.74-2.2.55-5.62 2.03-8.56l-1.72-.91c-.98 1.34-3.07 4.34-5.16 6.78l-.18.19c-1.66 1.95-3.31 3.48-4.36 3.48-.49 0-.98-.49-.98-1.59V204c1.66.19 3.38-.85 4.48-2.75l.61-1.1c2.15-3.73-1.35-4.95-3.74-2.75l3.31-5.75h-2.33l-6.63 11.5c-.12-.12-.3-.25-.43-.3l-.18.18c-1.66 1.95-3.8 3.48-5.46 3.48-1.41 0-2.27-.92-1.23-2.75l2.4-4.16c1.34-2.32 3.74-1.9 2.33.5l-.31.54h1.9l.3-.55c1.24-2.14.07-3.73-1.83-3.73-1.9 0-3.38.98-4.36 2.7l-2.27 3.9c-.06 0-.12-.06-.12-.06l-.19.19c-1.65 1.95-3.31 3.48-4.35 3.48-.5 0-.8-.36-.25-1.28l4.97-8.69h-2.33l-4.11 7.22c-1.78 1.6-3.13 2.5-3.56 2.32-.56-.24 0-1.1.3-1.59l4.55-7.88h-2.34l-4.54 7.76c-.49.43-1.04.86-1.47 1.23.74-2.2.55-5.63 2.02-8.57l-1.71-.91c-.99 1.34-6.32 8.44-8.47 10.88.18.3.55.55.86.8 1.35-1.53 5.77-7.22 6.56-8.32-.92 2.38-.43 6.73-2.64 6.73-.8 0-1.1-.86-1.1-.86l-1.47.73s.43 1.9 2.57 1.9c.25 0 .43 0 .68-.06h.06a8.05 8.05 0 0 0 3.44-1.47c0 .92.55 1.53 1.53 1.53 1.29 0 2.7-1.16 3.8-2.2-.24 1.22.5 2.2 1.97 2.2s3.07-1.16 4.6-2.7c0 1.54 1.23 2.7 3.13 2.7s3.75-1.04 5.4-2.45l-1.28 2.27h2.33l2.64-4.59v1.84c0 1.95.36 3 2.27 3 1.9 0 4.1-2.09 6.07-4.29 1.35-1.53 2.46-3.12 3.32-4.22-.92 2.39-.43 6.73-2.64 6.73-.8 0-1.1-.86-1.1-.86l-1.48.74s.43 1.9 2.58 1.9c.24 0 .43 0 .67-.07h.06c2.34-.43 4.73-2.32 6.45-4.34Zm-15.47-1.84.68-1.16c2.7-3.73 4.54-2.69 3.68-1.28l-1.1 1.9c-.68 1.22-2.7 2.07-3.26.54Zm15.41 3.43c-.74 0-1.35.61-1.35 1.34 0 .74.55 1.35 1.35 1.35.73 0 1.35-.55 1.35-1.35 0-.73-.62-1.34-1.35-1.34Zm.12-.92h2.33l7.3-12.66h-2.33l-7.3 12.66ZM49.22 169.75c0 .18-.06.37-.12.55-.06.18-.19.37-.31.49s-.3.25-.5.37c-.18.06-.42.12-.67.12-.3 0-.55-.06-.8-.18-.24-.13-.48-.25-.67-.43-.18-.19-.24-.37-.37-.61a3.08 3.08 0 0 1-.12-.8c0-.55.12-.98.3-1.47.2-.42.44-.85.8-1.16.13-.12.31-.3.5-.43.18-.12.36-.24.55-.3.18-.06.3-.19.43-.25.12-.06.18-.06.24-.12l.86 1.22c-.12.06-.3.13-.49.25-.18.06-.37.18-.55.3-.19.13-.3.31-.43.5-.12.18-.18.36-.18.6.42 0 .73.13 1.04.37.37.19.49.55.49.98Zm4.85 0c0 .18-.06.37-.12.55-.07.18-.19.37-.31.49s-.3.25-.5.37c-.18.06-.42.12-.67.12-.3 0-.55-.06-.8-.18-.24-.13-.49-.25-.67-.43-.12-.19-.25-.37-.37-.61a3.08 3.08 0 0 1-.12-.8c0-.55.12-.98.3-1.47.19-.42.43-.85.8-1.16.13-.12.31-.3.5-.43.18-.12.36-.24.55-.3.18-.06.3-.19.43-.25.12-.06.18-.06.24-.12l.86 1.22c-.12.06-.3.13-.49.25-.18.06-.37.18-.55.3-.19.13-.31.31-.43.5-.13.18-.19.36-.19.6.43 0 .74.13 1.05.37.3.19.49.55.49.98Zm162.69 36.02c0-.19.06-.37.13-.55.06-.19.18-.37.3-.5.13-.12.3-.24.5-.36.18-.06.42-.12.67-.12.3 0 .55.06.8.18.24.12.49.25.67.43.18.18.25.37.37.61.06.25.12.5.12.8 0 .55-.12.98-.3 1.46-.19.43-.43.86-.8 1.17a3.41 3.41 0 0 1-1.05.73c-.18.06-.3.18-.42.24-.13.06-.19.06-.25.13l-.86-1.23c.12-.06.3-.12.5-.24.18-.06.36-.18.54-.3.19-.13.31-.31.43-.5.13-.18.19-.36.19-.6-.43 0-.74-.13-1.05-.37-.3-.19-.49-.56-.49-.98Zm-4.78 0c0-.19.06-.37.12-.55.06-.19.18-.37.3-.5.13-.12.31-.24.5-.36.18-.06.43-.12.67-.12.3 0 .55.06.8.18s.49.25.67.43c.13.18.25.37.37.61.06.25.13.5.13.8 0 .55-.13.98-.31 1.46-.19.43-.43.86-.8 1.17-.12.12-.3.3-.49.42-.19.13-.37.25-.55.31-.19.06-.31.18-.43.24-.13.06-.19.06-.25.13l-.86-1.23c.19-.06.31-.12.5-.24.18-.06.36-.18.55-.3.18-.13.3-.31.43-.5.12-.18.18-.36.18-.6-.43 0-.74-.13-1.04-.37-.37-.19-.5-.56-.5-.98Z"/></symbol><symbol id="welcome-tablet"><path fill-rule="evenodd" clip-rule="evenodd" d="m165.739 70-.2.2c-1.405 1.5-3.01 2.2-4.515 2.2l2.809-4.9c1.806-3.1.1-6.1-2.709-6.1-2.307 0-4.113.9-5.819 3.9l-1.505 2.6-1.204 2.1-.2.2c-2.207 2.5-4.314 4.5-5.619 4.5-.702 0-1.003-.5-.3-1.6l6.42-11.2h2.408l.903-1.4H153.7l2.809-4.9h-3.01l-2.809 4.9h-2.709l-.903 1.4h2.709l-6.019 10.4c-1.305 2.2-.402 4.3 2.006 4.3 1.706 0 3.712-1.3 5.518-3.1 0 3.8 5.317 4.6 8.528.5h.702c1.806 0 4.615-1.1 6.12-2.9 0-.5-.501-.9-.903-1.1Zm-6.421.2h-.1c-1.003 0-1.806.8-1.806 1.8 0 .4.1.7.301 1v.1c-1.404 2.4-4.816 2-3.11-1.2l2.307-3.9 1.405-2.4c2.107-3.6 5.016-2.2 3.21.9l-2.207 3.7Zm48.057-.2-.201.2c-2.207 2.5-4.916 4.5-7.023 4.5-1.806 0-2.909-1.2-1.605-3.6l.301-.5c1.906.8 5.618.4 7.825-3.5l.402-.7c1.605-2.8.1-4.8-2.408-4.8-2.408 0-4.314 1.3-5.618 3.5l-2.91 5-.2.2c-2.208 2.5-4.315 4.5-5.619 4.5-.702 0-1.003-.5-.301-1.6l4.314-7.6c1.305-2.3.101-3.9-1.605-3.9-1.304 0-2.709.7-4.214 2.3l4.816-8.3h-3.01L181.992 70l-.201.2c-2.207 2.5-4.314 4.5-5.618 4.5-.702 0-1.003-.5-.301-1.6l6.421-11.2h2.408l.903-1.4h-2.508l2.809-4.9h-3.01l-2.809 4.9h-2.709l-.903 1.4h2.709l-6.02 10.4c-1.304 2.2-.401 4.3 2.007 4.3 1.204 0 2.508-.6 3.812-1.6l-.802 1.3h3.01l4.514-7.9c4.615-5.8 6.622-5 5.418-2.8l-3.913 6.8c-1.304 2.2-.401 4.3 2.007 4.3 1.806 0 3.812-1.4 5.618-3.2.1 1.9 1.705 3.2 4.113 3.2 3.411 0 6.823-2.6 9.23-5.5.101-.6-.401-1-.802-1.2Zm-5.719-4.2c1.706-3 4.816-2.5 3.01.6l-.401.7c-1.405 2.4-3.411 2.4-4.515 2l1.906-3.3Zm114.974 4.4.201-.2c.501.1 1.003.6 1.103 1.1-2.207 2.6-5.217 5-8.327 5.4h-.1c-.301.1-.502.1-.803.1-2.809 0-3.31-2.4-3.31-2.4l1.906-1s.401 1.1 1.404 1.1c1.923 0 2.268-2.446 2.629-5 .185-1.31.374-2.649.782-3.7-.352.447-.746.966-1.173 1.53h-.001l-.001.002c-.911 1.201-1.979 2.608-3.139 3.968-2.508 2.9-5.317 5.5-7.825 5.5-1.906 0-2.91-1.3-2.609-2.9-1.404 1.4-3.31 2.9-4.916 2.9-1.705 0-2.407-1.4-1.605-3.5-1.103.6-2.408.9-3.311.9h-.702c-3.21 4.1-8.628 3.3-8.528-.6-2.006 1.8-4.514 3.2-6.922 3.2-2.508 0-4.013-1.3-4.113-3.2-2.509 2.4-4.916 3.8-7.324 4.6l-2.308 3.9c-2.207 3.7-6.621 3.1-6.621.2 0-2.2 2.608-3.9 6.621-5.1l.702-1.2c-1.103.6-2.106 1-2.909 1-1.706 0-2.608-1-2.608-2.4-1.606 1.4-3.311 2.4-4.816 2.4-2.408 0-3.311-2.1-2.007-4.3l3.211-5.5c.301-.6.2-1.2-.201-1.7l-.401-.5c-2.408 3.2-3.612 4.7-5.017 6.4-1.504 1.8-4.314 2.9-6.119 2.9h-.703c-3.21 4.1-8.527 3.3-8.527-.5-2.509 2.3-4.816 3.8-7.224 4.5l-2.307 3.9c-2.208 3.7-6.622 3.1-6.622.2 0-2.2 2.608-3.9 6.622-5.1l.802-1.4c-1.103.6-2.107 1-2.909 1-2.408 0-3.311-2.1-2.007-4.3l4.214-7.3c1.204-2.2 3.511-3.5 5.116-3.5 1.806 0 3.111 1.7 3.111 2.9h1.806L222.123 76c2.407-1 4.514-2.8 7.022-5.7l.201-.2 1.204-2.1 1.505-2.6c1.705-3 3.511-3.9 5.819-3.9 2.809 0 4.515 3 2.709 6.1l-2.809 4.9c1.504 0 3.11-.7 4.514-2.2l.201-.2c2.006-2.3 3.812-4.8 5.117-6.7l-.301-.3c-1.004-1.4-.903-3.1.802-4.6l1.605 1.7c-.602.5-.602 1.2-.2 1.7l1.705 2c.903 1.2 1.405 2.3.402 4.1l-3.01 5.2c-.702 1.1-.401 1.6.301 1.6 1.304 0 3.411-2 5.618-4.5l.201-.2 2.909-5c1.204-2.2 3.512-3.5 5.117-3.5 1.806 0 3.11 1.7 3.11 2.9h1.806L260.949 76c2.408-1 4.515-2.8 7.023-5.7l.2-.2 2.91-5c1.304-2.2 3.21-3.5 5.618-3.5 2.508 0 4.013 2 2.408 4.8l-.401.7c-2.207 3.9-5.919 4.3-7.826 3.5l-.301.5c-1.304 2.4-.2 3.6 1.606 3.6 2.106 0 4.815-2 7.022-4.5l.201-.2 1.204-2.1 1.505-2.6c1.705-3 3.511-3.9 5.819-3.9 2.809 0 4.514 3 2.709 6.1l-2.81 4.9c1.505 0 3.111-.7 4.515-2.2l.201-.2 4.715-8.1h3.01l-5.819 10.2-.037.064-.049.085c-.405.698-.97 1.672-.315 1.951.602.2 2.307-.9 4.615-3l5.317-9.3h3.01l-6.421 11.2c-.702 1.1-.401 1.6.301 1.6 1.304 0 3.411-2 5.618-4.5l.201-.2c2.598-2.96 5.109-6.517 6.425-8.38l.011-.016.286-.404 2.207 1.2c-1.147 2.346-1.495 4.836-1.808 7.079-.208 1.487-.401 2.865-.801 4.021 1.204-.9 2.509-2 3.612-3.3Zm-39.829-3.8c1.805-3.1-1.305-3.6-3.01-.6l-1.906 3.3c1.103.4 3.11.4 4.514-2l.402-.7Zm-62.002 15.1c0 .9 1.003 1 1.605-.1l1.405-2.5c-2.308.9-3.01 1.8-3.01 2.6Zm2.709-8.4c-.703 1.1-.402 1.6.301 1.6 1.204 0 3.11-1.4 4.916-4.3l2.307-4c1.505-2.7-1.705-3.4-3.311-.6l-4.213 7.3Zm18.66-2.9h.101l2.207-3.7c1.806-3.1-1.104-4.5-3.211-.9l-1.404 2.4-2.308 3.9c-1.705 3.2 1.706 3.6 3.11 1.2V73c-.2-.3-.301-.6-.301-1 0-1 .803-1.8 1.806-1.8Zm17.357 11.3c0 .9 1.003 1 1.605-.1l1.405-2.5c-2.308.9-3.01 1.8-3.01 2.6Zm2.709-8.4c-.703 1.1-.402 1.6.301 1.6 1.204 0 3.11-1.4 4.916-4.3l2.307-4c1.505-2.7-1.705-3.4-3.311-.6l-4.213 7.3Zm29.797-2.9h.1l2.207-3.7c1.806-3.1-1.104-4.5-3.21-.9l-1.405 2.4-2.307 3.9c-1.706 3.2 1.705 3.6 3.11 1.2V73c-.201-.3-.301-.6-.301-1 0-1 .802-1.8 1.806-1.8Zm-155.506-3.4H101.53v2h28.995v-2Zm198.746 0h28.995v2h-28.995v-2Z" fill="#766458"/><path fill-rule="evenodd" clip-rule="evenodd" d="M163.532 0h7.725l-1.204 44.9h-14.547l-2.007-18.5-2.006 18.5h-14.648L135.742 0h7.625l.601 37.2h.803L149.687 0h7.625l4.916 37.2h.802l.502-37.2Zm31.904 37.2V45h-20.968V0h20.968v7.7h-13.343v10.8h10.634v7.7h-10.634v10.9h13.343v.1Zm21.47 7.8v-7.8h-10.735V0h-7.625v45h18.36Zm16.253-16.6 7.725-1.8v13.6c0 2.6-2.207 4.7-4.715 4.7h-11.538c-2.608 0-4.715-2.2-4.715-4.7V4.7c0-2.6 2.107-4.7 4.715-4.7h11.538c2.508 0 4.715 2.1 4.715 4.7v9.1l-7.725 1.8v-8h-5.518v29.5h5.518v-8.7Zm33.308-23.7c0-2.6-2.207-4.7-4.715-4.7h-11.538a4.702 4.702 0 0 0-4.715 4.7v35.4c0 2.5 2.107 4.7 4.715 4.7h11.538c2.508 0 4.715-2.1 4.715-4.7V4.7Zm-13.243 3h5.518v29.5h-5.518V7.7ZM291.549 0h7.624v44.9h-7.624V22.8l-3.11 11.4h-7.525l-3.01-11.4v22.1h-7.625V0h7.625l6.822 21.7L291.549 0Zm32.405 45V37.1h-13.343V26.2h10.634v-7.7h-10.634V7.7h13.343V0h-20.968v45h20.968Z" fill="#81B3D3"/><path fill-rule="evenodd" clip-rule="evenodd" d="M246.101 215.7c24.078 0 41.535-17.1 41.535-41.3 0-22.6-19.965-38.5-41.535-38.5-21.57 0-41.535 15.9-41.535 38.5 0 24.2 17.456 41.3 41.535 41.3ZM246 196.8c-11.637 0-21.168-9.4-21.168-22.3 0-10.3 9.631-19.8 21.168-19.8 11.638 0 21.169 9.5 21.169 19.8 0 12.9-9.531 22.3-21.169 22.3ZM31.502 152.6c4.816 0 9.33 2 12.943 5l7.725-15c-6.622-3.8-15.952-6.2-23.477-6.2-15.049 0-25.884 9.9-25.884 25.1 0 14.5 8.026 17.6 20.266 21.2.24.069.492.139.753.212l.004.001c4.306 1.206 11.082 3.103 11.082 8.287 0 5.2-4.816 7.5-9.431 7.5-6.722 0-12.44-3.4-17.357-7.7L0 206.5c7.625 5.3 16.955 8.5 26.386 8.5 7.524 0 15.35-2 21.27-7 5.918-5 7.724-12.7 7.724-20.1 0-12.1-8.126-17.3-18.56-20.4l-5.017-1.5c-3.31-1-8.628-2.7-8.628-7.1 0-4.2 4.716-6.3 8.328-6.3ZM91.9 167.3v-12.5l23.276.1v-16.5h-42.74v74.8h42.74v-16.5H91.899v-12.9h21.971v-16.5H91.899Zm37.723-28.9h27.69c20.868 0 38.124 16.4 38.124 37.4s-17.357 37.4-38.124 37.4h-27.69v-74.8Zm19.563 58.3h4.415c11.638 0 21.57-6.4 21.57-20.9 0-13.4-8.829-20.9-21.37-20.9h-4.615v41.8Zm148.785-58.3h19.563l35.716 45.8h.201v-45.8h19.564v74.8H353.45l-35.716-45.9h-.201v45.9H297.97v-74.8Zm105.242 74.8 5.217-13h26.888l4.916 13H461l-28.292-74.8h-21.269l-28.894 74.8h20.667Zm18.661-51.7h.2l8.027 23.8h-16.253l8.026-23.8ZM80.462 277.6c0 .3-.1.6-.201.9-.1.3-.3.6-.502.8-.2.2-.501.4-.802.6-.301.1-.703.2-1.104.2-.501 0-.903-.1-1.304-.3-.402-.2-.803-.4-1.104-.7-.238-.237-.35-.475-.486-.761a12.165 12.165 0 0 0-.116-.239c-.1-.4-.2-.8-.2-1.3 0-.9.2-1.6.501-2.4.301-.7.703-1.4 1.305-1.9.2-.2.501-.5.802-.7.301-.2.602-.4.903-.5.19-.063.339-.165.473-.257.08-.055.155-.106.23-.143.076-.038.138-.062.191-.082a.518.518 0 0 0 .21-.118l1.404 2c-.06.03-.13.06-.205.093l-.002.001a3.685 3.685 0 0 0-.595.306c-.301.1-.602.3-.903.5-.301.2-.502.5-.703.8-.2.3-.3.6-.3 1 .702 0 1.203.2 1.705.6.602.3.803.9.803 1.6Zm7.925 0c0 .3-.1.6-.2.9-.1.3-.301.6-.502.8-.2.2-.501.4-.802.6-.301.1-.703.2-1.104.2-.502 0-.903-.1-1.304-.3-.402-.2-.803-.4-1.104-.7-.2-.3-.401-.6-.602-1-.1-.4-.2-.8-.2-1.3 0-.9.2-1.6.501-2.4.301-.7.703-1.4 1.304-1.9.201-.2.502-.5.803-.7.301-.2.602-.4.903-.5.189-.063.338-.165.473-.257.08-.055.155-.106.23-.143.076-.038.138-.062.19-.082a.518.518 0 0 0 .21-.118l1.405 2c-.06.03-.13.06-.205.093l-.002.001a3.685 3.685 0 0 0-.596.306c-.3.1-.601.3-.902.5-.301.2-.502.5-.703.8-.2.3-.3.6-.3 1 .702 0 1.203.2 1.705.6.502.3.803.9.803 1.6Zm275.698 18.5.301-.3c.29.116.646.365.973.593h.001v.001c.239.166.462.322.631.406-3.21 3.6-6.822 7-9.932 7-1.907 0-3.11-1-3.311-2.5-1.906 1.5-3.812 2.5-5.317 2.5-2.308 0-3.512-1.4-3.311-3.3-2.207 1.9-4.415 3.3-6.421 3.3-3.11 0-4.214-2.6-2.609-5.4l4.916-8.6c1.706-2.8-.902-3.8-6.721 3.5l-5.819 10.1h-3.813l1.405-2.4c-1.906 1.7-3.913 2.8-5.719 2.8-1.906 0-3.11-1-3.311-2.5-1.906 1.5-3.812 2.5-5.317 2.5-2.207 0-3.311-1.3-3.311-3-2.006 1.8-4.113 3-6.019 3-3.11 0-4.214-2.6-2.609-5.4l4.013-7c.502-.8.301-1.6-.2-2.2l-.502-.6-.468.628-.001.002c-2.597 3.481-3.939 5.281-5.551 7.17.039.077.062.138.083.191a.507.507 0 0 0 .118.209c-4.214 4.9-8.126 7.6-12.039 8.8l-2.91 5c-2.708 4.7-8.327 3.9-8.327.3 0-2.9 3.211-4.9 8.327-6.5l1.004-1.7a7.668 7.668 0 0 1-4.114 1.2c-5.417 0-5.919-5.1-3.21-9.7l1.104-2c-3.111-1.6-4.816-4.5-4.816-7.5 0-2.6 1.204-5.2 3.913-7.1l1.204 2.2c-1.606 1.3-2.408 3-2.408 4.8 0 2.1 1.204 4.2 3.411 5.4l5.919-10.2c1.706-2.9 4.214-4.4 6.321-4.4 11.938 0 5.417 18.1-8.127 18.1-.802 0-1.505-.1-2.207-.2l-1.104 1.9c-2.307 3.9-1.806 6.5.803 6.5 3.01 0 5.317-2.6 7.324-6.1l.401-.7h3.712l-4.815 8.2c3.009-1.3 5.718-3.6 8.828-7.2l-.301-.3c2.229-2.576 4.219-5.389 5.832-7.668l.589-.832-.301-.4c-1.304-1.7-1.204-3.9 1.003-5.8l2.007 2.2c-.702.7-.702 1.5-.201 2.2l2.107 2.6c1.204 1.5 1.806 2.8.502 5.1l-3.813 6.6c-.903 1.5-.401 2.1.402 2.1 1.705 0 4.414-2.5 7.123-5.7l.201-.2 3.712-6.3c1.605-2.8 4.514-4.4 6.521-4.4 2.508 0 4.113 2.2 4.013 3.8h1.906l-6.12 10.7c-.903 1.5-.401 2.1.402 2.1 1.705 0 4.414-2.5 7.123-5.7l.301-.3c.2 0 .301.1.401.2l6.12-10.5h3.812l-1.404 2.5c1.906-1.9 3.712-2.8 5.317-2.8 2.107 0 3.612 2.1 2.007 5l-5.518 9.6c-.903 1.5-.402 2.1.401 2.1 1.705 0 4.414-2.5 7.123-5.7l.301-.3s.1.1.201.1l3.712-6.4c1.605-2.8 4.514-4.4 6.521-4.4 1.605 0 2.809.9 3.511 2l5.619-9.6h3.812l-12.842 22.2c-.903 1.5-.401 2.1.402 2.1 1.705 0 4.414-2.5 7.123-5.7Zm-74.442-17.3c-1.004 0-2.308.9-3.412 2.8l-5.517 9.5h.802c9.932 0 14.146-12.3 8.127-12.3Zm-13.645 31.6c0 1 1.304 1.2 2.107-.2l1.706-3c-2.91 1.1-3.813 2.2-3.813 3.2Zm35.817-8.7c1.505 0 3.812-1.7 6.12-5.3l3.009-5.2c1.907-3.4-2.207-4.3-4.213-.8l-5.318 9.2c-.903 1.5-.401 2.1.402 2.1Zm36.719 0c1.605 0 3.913-1.7 6.22-5.5l2.91-5c1.906-3.4-2.207-4.3-4.214-.8l-5.317 9.2c-.903 1.5-.401 2.1.401 2.1Zm-239.579-26.2c7.524 0 7.022 9.6-.703 12.2 7.324 4.9 2.007 18.5-9.33 18.5-13.343 0-15.751-14.6-7.725-19.7l1.505 1.9c-3.712 2.4-4.415 7.8-1.806 11.4.505-.587.869-1.175 1.27-1.821l.235-.379 10.233-17.7c1.706-2.9 4.214-4.4 6.321-4.4ZM93.304 302c1.504.8 3.21 1.3 5.518 1.3 9.23 0 12.741-13.1 3.812-15l-1.003-.1-6.421 11.1c-.602 1-1.204 1.9-1.906 2.7Zm12.741-21.3-3.11 5.3c3.913-.1 6.02-.9 7.524-3.7 1.907-3.6-1.605-6.4-4.414-1.6Zm37.522 23.4c-2.508 0-3.712-1.9-3.11-4.1-2.709 2.3-5.819 4.1-9.029 4.3-3.211 0-5.217-2-5.117-4.6-2.709 2.6-6.12 4.6-9.431 4.6-4.514 0-6.621-3.8-4.213-7.8l4.013-6.8c1.605-2.8 4.013-4.4 7.123-4.4 3.11 0 5.016 2.6 3.01 6.1l-.502.9c-2.909 4.9-7.524 5.4-9.932 4.4l-.402.7c-1.705 3-.301 4.5 2.007 4.5 2.709 0 6.22-2.5 8.929-5.7l.301-.3c.05.05.1.075.151.1.05.025.1.05.15.1l3.812-6.5c1.606-2.8 4.013-4.4 7.124-4.4 3.11 0 5.016 2.6 3.009 6.1l-.501.9h-3.11l.501-.9c2.308-3.9-1.605-4.6-3.812-.8l-3.913 6.8c-1.705 3-.301 4.5 2.007 4.5 2.708 0 6.22-2.5 8.929-5.7l.301-.3c.2.1.401.2.602.4l3.812-6.6c1.605-2.8 4.515-4.4 6.521-4.4 2.508 0 4.114 2.2 4.013 3.8h2.208l-6.12 10.7c-.903 1.5-.402 2.1.401 2.1 1.705 0 4.414-2.5 7.123-5.7l.301-.3c.05.05.1.075.151.1.05.025.1.05.15.1l6.02-10.4h3.812l-7.424 12.9-.031.05c-.507.807-1.355 2.158-.471 2.55.703.3 2.91-1.2 5.819-3.8l6.722-11.8h3.812l-8.126 14.2c-.903 1.5-.401 2.1.401 2.1 1.706 0 4.415-2.5 7.124-5.7l.1-.2-.1-.1c2.82-3.308 5.641-7.231 7.441-9.734l.003-.004c.375-.522.706-.982.983-1.362l2.809 1.5c-1.474 2.938-1.933 6.176-2.343 9.072-.26 1.835-.501 3.532-.968 4.928 1.505-1 3.211-2.5 4.615-4.1l.301-.3h.101l3.712-6.3c1.605-2.8 4.013-4.4 7.123-4.4 3.11 0 5.016 2.6 3.01 6.1l-.502.9c-2.909 4.9-7.524 5.4-9.932 4.4l-.402.7c-1.705 3-.301 4.5 2.007 4.5 2.709 0 6.22-2.5 8.929-5.7l.301-.3c.502.2 1.104.8 1.405 1.3-3.111 3.6-7.425 7-11.739 7-3.11 0-5.016-1.8-5.116-4.3-2.408 2.1-5.117 3.8-7.926 4.2h-.1c-.402.1-.703.1-1.104.1-3.511 0-4.214-3.1-4.214-3.1l2.408-1.2s.502 1.4 1.806 1.4c2.393 0 2.848-3.118 3.321-6.356.24-1.649.485-3.328.993-4.644-.426.547-.89 1.167-1.387 1.833h-.001c-1.141 1.528-2.462 3.296-3.929 4.967 0 .05.025.075.05.1.025.025.05.05.05.1-3.21 3.6-6.822 7-9.932 7-2.408 0-3.612-1.6-3.211-3.6-1.806 1.7-4.113 3.6-6.22 3.6-1.906 0-2.809-1.4-2.408-3.4-2.207 2-4.414 3.4-6.421 3.4-1.906 0-3.11-1-3.31-2.5-1.907 1.5-3.813 2.5-5.318 2.5Zm58.892-12.9c2.307-3.9-1.605-4.6-3.813-.8l-2.407 4.2c1.404.5 3.912.6 5.718-2.5l.502-.9Zm-52.872-.7-5.317 9.2c-.903 1.5-.402 2 .401 2.1 1.505 0 3.812-1.7 6.12-5.3l3.01-5.2c1.906-3.4-2.208-4.3-4.214-.8Zm-25.784.7c2.307-3.9-1.605-4.6-3.812-.8l-2.408 4.2c1.404.5 3.912.6 5.718-2.5l.502-.9Zm125.207 12.9c4.314 0 8.628-3.4 11.739-7-.301-.5-.903-1.1-1.405-1.3l-.301.3c-2.709 3.2-6.22 5.7-8.929 5.7-2.308 0-3.712-1.5-2.007-4.5l.402-.7c2.407 1 7.022.5 9.932-4.4l.502-.9c2.006-3.5.1-6.1-3.01-6.1s-5.518 1.6-7.123 4.4l-3.712 6.3s-.101 0-.101-.1l-.301.3c-2.709 3.2-5.417 5.7-7.123 5.7-.803 0-1.304-.6-.401-2.1l5.518-9.6c1.605-2.9.1-5-2.007-5-1.605 0-3.411.9-5.317 2.9l6.12-10.5h-3.913L226.838 296c-.05-.05-.125-.1-.201-.15-.075-.05-.15-.1-.2-.15l-.301.3c-2.709 3.2-5.418 5.7-7.123 5.7-.803 0-1.305-.6-.402-2.1l8.127-14.2h3.11l1.104-1.8h-3.111l3.612-6.2h-3.812l-3.612 6.2h-3.411l-1.104 1.8h3.512l-7.625 13.2c-1.605 2.8-.502 5.4 2.608 5.4 1.907 0 3.913-1.2 6.02-3l-1.505 2.6h3.813l5.818-10c5.819-7.3 8.428-6.4 6.823-3.6l-4.916 8.6c-1.606 2.8-.502 5.4 2.608 5.4 2.308 0 4.916-1.8 7.324-4.2 0 2.5 1.906 4.3 5.016 4.3Zm3.11-13.7c2.208-3.8 6.12-3.1 3.813.8l-.502.9c-1.806 3.1-4.314 3-5.718 2.5l2.407-4.2Zm-14.848 41.4-.301.3c-2.709 3.2-5.417 5.7-7.123 5.7-.803 0-1.304-.6-.401-2.1l5.518-9.6c1.605-2.9.1-5-2.007-5-1.605 0-3.411.9-5.317 2.8l1.404-2.5h-3.812l-6.12 10.6c-.1-.05-.175-.1-.251-.15-.075-.05-.15-.1-.251-.15l-.301.3c-1.705 1.9-3.812 2.8-5.718 2.8l3.612-6.2c2.307-4 .2-7.7-3.411-7.7-2.91 0-5.217 1.2-7.425 5l-1.906 3.2-1.605 2.8a.514.514 0 0 0-.151-.1l-.027-.014a.437.437 0 0 1-.123-.086l-.301.3c-3.11 3.6-5.819 5.9-8.829 7.2l10.434-17.8h-3.812l-6.722 11.7c-2.91 2.7-5.217 4.2-5.919 3.9-.885-.392-.037-1.743.47-2.55l.031-.05 7.424-12.9h-3.812L184.4 332c-.05-.05-.1-.075-.15-.1a.514.514 0 0 1-.151-.1l-.301.3c-2.709 3.2-5.417 5.7-7.123 5.7-.803 0-1.304-.6-.401-2.1l5.518-9.6c1.605-2.9.1-5-2.007-5-1.605 0-3.411.9-5.317 2.8l1.404-2.5h-3.812l-6.12 10.5c-.1-.1-.201-.2-.401-.2l-.301.3c-2.709 3.2-5.418 5.7-7.123 5.7-.803 0-1.305-.6-.402-2.1l6.12-10.7h-2.207c.1-1.6-1.505-3.8-4.013-3.8-2.007 0-4.916 1.6-6.521 4.4l-3.913 6.8c-.301-.2-.602-.4-.803-.5l-.301.3c-2.708 3.2-6.119 5.7-9.832 5.7-2.608 0-4.213-2.6-1.906-6.5l1.104-1.9c.702.1 1.404.2 2.207.2 4.013 0 8.628-2.1 11.638-7.3 1.103-1.9 1.505-3.6 1.505-5.1 0-3.4-2.207-5.7-5.017-5.7-2.106 0-4.615 1.5-6.32 4.4l-5.919 10.2c-2.208-1.2-3.411-3.3-3.411-5.4 0-1.8.802-3.5 2.407-4.8l-1.204-2.2c-2.708 1.9-3.912 4.5-3.912 7.1 0 3 1.705 5.9 4.815 7.5l-1.103 2c-2.709 4.6-1.104 9.7 4.314 9.7 4.214 0 7.424-1.9 10.032-4.4-.802 2.4.402 4.4 3.111 4.4 1.504 0 3.411-1 5.317-2.5.201 1.5 1.404 2.5 3.311 2.5 1.806 0 3.812-1.1 5.718-2.8l-1.404 2.4h3.812l5.819-10.1c5.819-7.3 8.427-6.3 6.722-3.5l-4.916 8.6c-1.605 2.8-.502 5.4 2.608 5.4 2.007 0 4.314-1.4 6.522-3.4-.502 2.1.501 3.4 2.407 3.4 1.806 0 3.913-1.5 5.619-3.1l-2.107 3.6c-5.117 1.5-8.428 3.6-8.428 6.5 0 3.6 5.619 4.4 8.328-.3l2.909-5c3.21-1 6.321-3 9.631-6.2-.501 5.3 6.522 6.5 10.836 1.1h.802c1.405 0 3.311-.5 5.017-1.5l-2.509 4.4h3.813l5.819-10.1c5.819-7.3 8.427-6.3 6.722-3.5l-4.916 8.6c-1.606 2.8-.502 5.4 2.608 5.4 3.11 0 6.722-3.4 9.932-7-.1-.3-.802-.9-1.304-1.1Zm-94.708-14.2c1.104-1.9 2.408-2.8 3.411-2.8 1.405 0 2.107.9 2.107 2.3 0 3.5-4.314 9.9-10.233 9.9h-.803l5.518-9.4Zm13.444 14.8c-2.308 3.6-4.615 5.3-6.12 5.3-.803 0-1.304-.6-.401-2.1l5.317-9.2c2.006-3.5 6.12-2.6 4.214.8l-3.01 5.2Zm28.894 13.8c-.803 1.4-2.107 1.2-2.107.2s.903-2.1 3.812-3.2l-1.705 3Zm25.683-14.2h-.2c-1.204 0-2.208 1-2.208 2.3 0 .5.101.9.402 1.3v.1c-1.806 3.1-6.12 2.5-3.913-1.5l2.91-5 1.805-3.1c2.709-4.5 6.321-2.7 4.013 1.2l-2.809 4.7Zm113.47-.2c.501.1 1.203.7 1.404 1.3-2.809 3.3-6.722 6.4-10.534 7.1h-.101c-.401.1-.702.1-1.103.1-3.512 0-4.214-3.1-4.214-3.1l2.408-1.2s.502 1.4 1.806 1.4c2.393 0 2.848-3.117 3.321-6.356.24-1.648.485-3.328.993-4.644-.411.528-.857 1.123-1.338 1.765-1.159 1.55-2.519 3.368-4.08 5.135-3.21 3.6-6.822 7-9.932 7-3.11 0-3.712-1.7-3.712-4.9v-3l-4.314 7.5h-3.813l2.107-3.7c-2.708 2.3-5.718 4-8.828 4-3.111 0-5.117-1.9-5.117-4.4-2.508 2.5-5.117 4.4-7.525 4.4-2.407 0-3.611-1.6-3.21-3.6-1.806 1.7-4.113 3.6-6.22 3.6-1.605 0-2.508-1-2.508-2.5-1.806 1.3-3.712 2.1-5.619 2.4h-.1c-.401.1-.702.1-1.104.1-3.119 0-4.021-2.446-4.184-2.992a90.043 90.043 0 0 1-2.236 2.692 20.156 20.156 0 0 0-.293-.227c-.426-.327-.868-.667-1.112-1.073 3.511-4 12.24-15.6 13.845-17.8l2.809 1.5c-1.474 2.939-1.933 6.176-2.343 9.072-.26 1.835-.501 3.532-.968 4.928.304-.259.646-.538 1.001-.827l.008-.006.002-.002.001-.001c.461-.376.945-.77 1.396-1.164l7.424-12.7h3.813l-7.424 12.9-.032.05c-.506.808-1.354 2.159-.47 2.55.702.3 2.909-1.2 5.819-3.8l6.722-11.8h3.812l-8.126 14.2c-.903 1.5-.402 2.1.401 2.1 1.706 0 4.414-2.5 7.123-5.7l.301-.3s.101.1.201.1l3.712-6.4c1.605-2.8 4.013-4.4 7.123-4.4 3.11 0 5.016 2.6 3.01 6.1l-.502.9h-3.11l.502-.9c2.307-3.9-1.605-4.6-3.813-.8l-3.912 6.8c-1.706 3-.301 4.5 2.006 4.5 2.709 0 6.22-2.5 8.929-5.7l.301-.3c.201.1.502.3.702.5l10.836-18.8h3.812l-5.417 9.4c3.912-3.6 9.631-1.6 6.119 4.5l-1.003 1.8c-1.806 3.1-4.615 4.8-7.324 4.5v1.6c0 1.8.803 2.6 1.606 2.6 1.705 0 4.414-2.5 7.123-5.7l.301-.3c2.821-3.307 5.641-7.231 7.441-9.733v-.001c.377-.523.708-.985.986-1.366l2.809 1.5c-1.474 2.939-1.933 6.176-2.343 9.072-.26 1.835-.501 3.532-.968 4.928 1.505-1 3.211-2.5 4.616-4.1l.301-.3Zm-75.353 5.204 2.215-1.104s.501 1.4 1.805 1.4c2.394 0 2.849-3.117 3.321-6.356.241-1.648.486-3.328.993-4.644-.98 1.354-5.309 6.949-8.334 10.704Zm52.578-8.804-1.103 1.9c.903 2.5 4.214 1.1 5.317-.9l1.806-3.1c1.405-2.3-1.605-4-6.02 2.1Zm24.079 7.5c-1.204 0-2.207 1-2.207 2.2 0 1.2.903 2.2 2.207 2.2 1.204 0 2.207-.9 2.207-2.2 0-1.2-1.003-2.2-2.207-2.2Zm4.013-1.5h-3.813l11.939-20.7h3.813l-11.939 20.7Zm25.182 1.4c-.101.3-.201.6-.201.9 0 .7.301 1.3.803 1.6.501.4 1.003.6 1.705.6 0 .4-.1.7-.301 1-.201.3-.401.6-.702.8-.301.2-.602.4-.903.5-.21.139-.42.23-.596.306a4.953 4.953 0 0 0-.207.094l1.405 2c.062-.062.124-.085.21-.118a1.91 1.91 0 0 0 .191-.082c.075-.037.15-.088.229-.143.135-.092.285-.194.473-.257.301-.1.602-.3.903-.5.301-.2.602-.5.803-.7.602-.5 1.003-1.2 1.304-1.9.301-.8.502-1.5.502-2.4 0-.5-.1-.9-.201-1.3-.042-.083-.079-.163-.115-.238-.136-.287-.249-.525-.487-.762-.301-.3-.702-.5-1.103-.7-.402-.2-.803-.3-1.305-.3-.401 0-.802.1-1.103.2l-.001.001c-.301.199-.601.399-.802.599-.2.2-.401.5-.501.8Zm-7.826 0c-.1.3-.201.6-.201.9 0 .7.201 1.3.803 1.6.502.4 1.003.6 1.706.6 0 .4-.101.7-.301 1-.201.3-.402.6-.703.8-.301.2-.602.4-.903.5-.301.2-.501.3-.802.4l1.404 2c.062-.062.124-.085.21-.118.053-.02.115-.044.192-.082.074-.037.149-.088.229-.143.135-.092.284-.194.473-.257.301-.1.602-.3.903-.5.301-.2.602-.5.803-.7.602-.5 1.003-1.2 1.304-1.9.301-.8.501-1.5.501-2.4 0-.5-.1-.9-.2-1.3-.201-.4-.402-.7-.602-1-.301-.3-.702-.5-1.104-.7-.401-.2-.802-.3-1.304-.3-.401 0-.803.1-1.104.2v.001c-.301.199-.602.399-.802.599-.201.2-.402.5-.502.8Z" fill="#fff"/></symbol></svg>